<svg width="476" height="489" viewBox="0 0 476 489" fill="none" xmlns="http://www.w3.org/2000/svg">
<path d="M450.685 451.171C514.977 396.345 436.528 278.666 436.528 278.666C436.528 278.666 270.673 251.382 256.653 227.452C242.623 203.522 402.835 222.004 402.835 222.004C386.146 170.736 273.988 72.6164 273.988 72.6164C273.988 72.6164 127.949 150.409 120.021 123.619C112.093 96.8373 252.718 61.5965 252.718 61.5965C218.405 20.4659 145.819 1.03972 145.819 1.03972C34.8675 -13.7948 22.2657 135.019 22.2657 135.019C22.2657 135.019 -28.9063 160.847 -102.792 155.363C-102.792 155.363 -117.025 152.988 -139 154.074L-133.392 167.037C-129.585 166.533 -125.846 166.189 -122.183 166.03C-122.158 166.021 -122.141 166.021 -122.115 166.03C-122.064 166.03 -122.014 166.03 -121.954 166.03C-119.643 166.021 -116.346 166.012 -112.318 166.039C-112.318 166.039 -112.309 166.039 -112.301 166.039C-112.301 166.039 -112.292 166.039 -112.284 166.039C-103.107 166.516 -96.436 166.613 -91.7283 166.445C-91.7113 166.445 -91.7029 166.445 -91.6859 166.445C-63.1258 167.363 -25.2183 170.198 -13.8827 178.604C-13.8827 178.604 -12.5656 176.264 -9.36203 173.156C-10.8066 174.895 -12.3021 176.706 -13.8827 178.604C-50.0311 222.18 -9.63393 336.689 29.3272 392.795C68.2883 448.902 73.4037 414.12 86.218 368.106C99.0407 322.093 61.6772 255.717 63.4362 230.119C65.1952 204.529 88.9032 229.651 103.697 272.282C118.483 314.914 87.7475 354.058 110.461 423.471C133.175 492.893 275.619 487.286 275.619 487.286C241.994 447.736 230.727 353.917 244.603 343.621C258.479 333.325 309.787 456.072 322.593 472.955C335.399 489.838 386.418 506.006 450.702 451.18L450.685 451.171Z" fill="#0255D5"/>
</svg>
