<svg width="98" height="103" viewBox="0 0 98 103" fill="none" xmlns="http://www.w3.org/2000/svg">
<path d="M48.5 17C53.1944 17 57 13.1944 57 8.5C57 3.80558 53.1944 0 48.5 0C43.8056 0 40 3.80558 40 8.5C40 13.1944 43.8056 17 48.5 17Z" fill="url(#paint0_linear_241_175)"/>
<path d="M47.8031 25.8216C28.6305 25.8216 12.4933 36.756 7.718 51.6182C4.79717 51.681 2.11969 52.5533 0 53.9748V70.5048C2.20172 71.9811 5.00528 72.8655 8.05797 72.8655C8.31864 72.8655 8.57748 72.8588 8.83451 72.846C14.6795 86.1854 29.9211 95.6977 47.8031 95.6977C70.7344 95.6977 88.3822 80.0554 88.3822 60.7595C88.3822 41.4636 70.7344 25.8213 47.8031 25.8213V25.8216Z" fill="#FFA37E"/>
<path d="M19.1826 35.4515V21.9775C19.1826 21.9775 25.2713 23.5738 27.9895 39.0793L19.1826 35.4515Z" fill="#FFA37E"/>
<path d="M19.1826 21.9776C19.1826 21.9776 25.2713 23.5738 27.9895 39.0794C32.9908 38.342 33.2083 35.4516 33.2083 35.4516C26.3586 21.8746 19.1826 21.9776 19.1826 21.9776Z" fill="#FF835D"/>
<path d="M23.5179 53.5548C24.5896 52.4831 24.5896 50.7455 23.5179 49.6737C22.4462 48.602 20.7085 48.602 19.6368 49.6737C18.5651 50.7455 18.5651 52.4831 19.6368 53.5548C20.7085 54.6265 22.4461 54.6265 23.5179 53.5548Z" fill="#99604F"/>
<path d="M47.8029 26.7939C44.7007 26.7939 41.6781 27.0807 38.77 27.6237L39.3743 29.0947C42.0961 28.6226 44.9149 28.3738 47.8029 28.3738C50.9507 28.3738 53.9988 28.6688 56.9157 29.2275L57.318 27.7266C54.2796 27.1169 51.0959 26.7939 47.8029 26.7939Z" fill="#99604F"/>
<path d="M96.0536 40.1678C95.2503 39.947 94.4115 40.4331 94.1848 41.2288C94.0381 41.7443 93.8798 42.2568 93.6823 42.7551C93.5237 43.1069 93.3408 43.4475 93.1194 43.7634C93.0033 43.8992 92.879 44.0272 92.7448 44.145C92.6405 44.2149 92.5327 44.2787 92.4209 44.3358C92.2787 44.3841 92.1335 44.4218 91.9858 44.4507C91.8528 44.461 91.72 44.4656 91.5869 44.4656C91.5866 44.3972 91.5857 44.3288 91.5839 44.2608C91.5529 43.2008 91.356 42.118 90.8301 41.1859C90.2784 40.2083 89.336 39.5247 88.2888 39.1653C87.6814 38.9569 87.0158 38.9216 86.3872 39.034C85.6827 39.1598 85.0772 39.6769 84.726 40.283C84.1743 41.2345 84.1694 42.5072 84.5619 43.5164C84.6716 43.7987 84.7901 44.0794 84.9405 44.3425C85.0985 44.619 85.3023 44.8687 85.4986 45.1175C85.8158 45.5192 86.2204 45.8385 86.6342 46.1344C87.0793 46.4528 87.5809 46.667 88.0858 46.8708C88.0898 46.8723 88.0937 46.8739 88.0974 46.8754C88.0731 46.9416 88.0479 47.0075 88.022 47.0732C87.765 47.6428 87.449 48.1836 87.0796 48.6876C86.8363 48.9884 86.5747 49.2731 86.2943 49.5389C84.0372 43.679 80.0464 38.5166 74.8014 34.5176C78.0458 39.5715 79.8744 45.4034 79.8744 51.6142C79.8744 70.9101 62.2267 86.5524 39.2954 86.5524C28.5028 86.5524 18.6724 83.0872 11.2886 77.4071C14.8647 82.9492 20.1708 87.586 26.5973 90.8043C26.6556 93.8114 26.8759 99.8214 27.7071 102.37H38.2618C38.2618 102.37 39.0244 98.8847 39.4889 94.9975C42.1749 95.4568 44.955 95.698 47.8021 95.698C50.6491 95.698 53.4712 95.452 56.1565 94.9835C56.3066 97.7381 56.588 100.752 57.1157 102.37H67.6704C67.6704 102.37 69.1241 95.7257 69.2401 90.5521C80.8518 84.4066 88.3805 73.3628 88.3805 60.7601C88.3805 57.9578 88.008 55.2326 87.3014 52.6213C87.9154 52.1945 88.4799 51.6959 88.9781 51.1339C89.9169 50.0748 90.6548 48.831 91.099 47.486C91.6419 47.5252 92.166 47.483 92.7074 47.3976C93.1118 47.3338 93.4845 47.1755 93.8561 47.0081C94.0682 46.9124 94.2656 46.787 94.4494 46.6451C94.7289 46.4291 94.9939 46.2234 95.2278 45.9591C95.4593 45.6972 95.672 45.4137 95.8619 45.12C96.1897 44.6126 96.4242 44.0445 96.6423 43.4839C96.8265 43.0112 96.9741 42.5251 97.1129 42.0375C97.3396 41.2415 96.8447 40.3869 96.052 40.1688L96.0536 40.1678ZM87.7307 43.0683C87.6252 42.9158 87.5311 42.7569 87.4487 42.5907C87.4026 42.4586 87.3646 42.324 87.336 42.187C87.3333 42.1414 87.3315 42.0958 87.3309 42.0503C87.3913 42.067 87.4515 42.0855 87.511 42.1058C87.628 42.1648 87.7407 42.231 87.8495 42.3036C87.94 42.3838 88.0257 42.4689 88.1062 42.5591C88.1779 42.6676 88.2423 42.78 88.3 42.8964C88.3948 43.1643 88.4607 43.4405 88.5081 43.7209C88.5081 43.7233 88.5087 43.7255 88.5087 43.7279C88.3978 43.6629 88.2891 43.5936 88.1836 43.5198C88.0214 43.3806 87.8704 43.23 87.731 43.0677L87.7307 43.0683Z" fill="#FF835D"/>
<defs>
<linearGradient id="paint0_linear_241_175" x1="40" y1="8.5" x2="57" y2="8.5" gradientUnits="userSpaceOnUse">
<stop stop-color="#FBD305"/>
<stop offset="1" stop-color="#FAAB19"/>
</linearGradient>
</defs>
</svg>
