<svg width="458" height="440" viewBox="0 0 458 440" fill="none" xmlns="http://www.w3.org/2000/svg">
<g clip-path="url(#clip0_39_401)">
<path d="M108.979 156.099V163.599H116.469V156.099V148.609H108.979V156.099Z" fill="#EBEBEB"/>
<path d="M116.479 111.13H108.979V118.63H116.479V111.13Z" fill="#EBEBEB"/>
<path d="M162.8 193.659H155.3V201.159H162.8V193.659Z" fill="#EBEBEB"/>
<path d="M116.469 126.119V133.619H108.979V141.109H116.469V148.609H123.969H131.459V156.099H138.959V148.609H146.459V141.109V133.619H138.959V141.109H131.459H123.969V133.619V126.119V118.619H116.469V126.119Z" fill="#EBEBEB"/>
<path d="M131.46 111.13H123.97V118.62H131.46H138.96V111.13H131.46Z" fill="#EBEBEB"/>
<path d="M165.2 171.39H169.22V163.89H165.2H161.17V171.39H165.2Z" fill="#EBEBEB"/>
<path d="M146.46 118.619H138.96V126.119H146.46V118.619Z" fill="#EBEBEB"/>
<path d="M198.93 148.609H191.43V156.109H198.93V148.609Z" fill="#EBEBEB"/>
<path d="M206.43 66.1494H198.93V73.6494H206.43V66.1494Z" fill="#EBEBEB"/>
<path d="M161.45 126.12V118.62H168.94V111.13H161.45V103.63H153.95V111.13H146.46V118.62H153.95V126.12V133.62V141.11V148.61H161.45V141.11V133.62H168.94V126.12H161.45Z" fill="#EBEBEB"/>
<path d="M198.93 201.079H206.43V193.579H198.93H191.43V201.079H198.93Z" fill="#EBEBEB"/>
<path d="M191.439 66.1494H183.939V73.6494H191.439V66.1494Z" fill="#EBEBEB"/>
<path d="M189.56 126.12V118.62H182.06V111.13H174.57V118.62V126.12H167.07V133.62H174.57H182.06V126.12H189.56Z" fill="#EBEBEB"/>
<path d="M231.87 111.13H224.37V118.63H231.87V111.13Z" fill="#EBEBEB"/>
<path d="M154.17 148.609H146.67V156.109H154.17V148.609Z" fill="#EBEBEB"/>
<path d="M183.939 103.629V96.1294H191.429V88.6394H198.929H206.429V81.1394H198.929V73.6494H191.429V81.1394H183.939V88.6394H176.439V96.1294H168.939V103.629H176.439H183.939Z" fill="#EBEBEB"/>
<path d="M183.939 156.099V148.609H191.429V141.109H183.939H176.439V148.609H168.939V156.099H176.439H183.939Z" fill="#EBEBEB"/>
<path d="M206.43 186.08V178.59H198.93H191.43V171.09H183.94V178.59H176.44V186.08H168.94H161.45V193.58H168.94H176.44H183.94V186.08H191.43V193.58H198.93V186.08H206.43Z" fill="#EBEBEB"/>
<path d="M176.44 73.6494V66.1494H168.94H161.45V73.6494H153.95V81.1394H161.45H168.94V73.6494H176.44Z" fill="#EBEBEB"/>
<path d="M176.439 81.1396H168.939V88.6396H176.439V81.1396Z" fill="#EBEBEB"/>
<path d="M195.179 111.13H187.689V118.62V126.12V133.62H195.179H202.679V126.12H195.179V118.62H202.679V111.13H210.169V103.63H202.679V96.1299H195.179V103.63V111.13Z" fill="#EBEBEB"/>
<path d="M168.95 88.6396H161.45V96.1396H168.95V88.6396Z" fill="#EBEBEB"/>
<path d="M191.43 163.6V171.1H198.93H206.43V163.6H213.92H221.42V156.1H213.92H206.43H198.93V163.6H191.43Z" fill="#EBEBEB"/>
<path d="M231.87 133.619H224.37V141.119H231.87V133.619Z" fill="#EBEBEB"/>
<path d="M206.43 141.109H198.93V148.609H206.43V141.109Z" fill="#EBEBEB"/>
<path d="M225.17 118.619H217.67H210.17V126.119H217.67V133.619H225.17V126.119V118.619Z" fill="#EBEBEB"/>
<path d="M221.42 141.109H213.92V148.609H221.42V141.109Z" fill="#EBEBEB"/>
<path d="M138.96 186.23H161.46V156.1H131.33V163.6H123.97V171.1H131.33V178.6H123.97V186.1H131.33V186.24H131.47V193.6H123.97V208.59H131.47V201.09H138.97V186.24L138.96 186.23ZM155.69 161.87V180.61H136.95V161.87H155.69Z" fill="#EBEBEB"/>
<path d="M236.41 156.099H243.91V148.609H236.41H228.91H221.42V156.099H228.91H236.41Z" fill="#EBEBEB"/>
<path d="M236.41 126.12H243.91V118.62V111.13H236.41V118.62V126.12Z" fill="#EBEBEB"/>
<path d="M176.72 163.89H169.22V171.39V178.88H176.72V171.39V163.89Z" fill="#EBEBEB"/>
<path d="M251.41 156.1H243.91V163.6H251.41V156.1Z" fill="#EBEBEB"/>
<path d="M251.4 141.109V133.619H243.91V141.109V148.609H251.4V141.109Z" fill="#EBEBEB"/>
<path d="M116.469 193.579H108.979V201.079V208.579H116.469V201.079V193.579Z" fill="#EBEBEB"/>
<path d="M251.4 103.629V66.1494H213.92V103.629H251.4ZM219.54 98.0094V71.7694H245.78V98.0094H219.54Z" fill="#EBEBEB"/>
<path d="M240.16 77.3896H225.17V92.3796H240.16V77.3896Z" fill="#EBEBEB"/>
<path d="M251.4 171.1H213.92V208.58H251.4V171.1ZM219.54 202.96V176.72H245.78V202.96H219.54Z" fill="#EBEBEB"/>
<path d="M240.16 182.34H225.17V197.33H240.16V182.34Z" fill="#EBEBEB"/>
<path d="M108.88 66.1494V103.629H146.36V66.1494H108.88ZM140.74 71.7694V98.0094H114.5V71.7694H140.74Z" fill="#EBEBEB"/>
<path d="M135.12 77.3896H120.13V92.3796H135.12V77.3896Z" fill="#EBEBEB"/>
<path d="M49.0695 212.959C49.0695 214.919 47.4695 216.499 45.5095 216.489C43.5495 216.489 41.9695 214.879 41.9795 212.929C41.9795 210.969 43.5795 209.389 45.5395 209.399C47.4995 209.399 49.0795 211.009 49.0695 212.959Z" fill="#EBEBEB"/>
<path d="M38.4298 208.4C42.3298 204.31 48.6598 204.18 52.6598 208.21C54.4698 210.04 57.3098 207.23 55.4998 205.4C50.0198 199.87 41.0098 199.91 35.6298 205.56C33.8598 207.42 36.6598 210.26 38.4398 208.4H38.4298Z" fill="#EBEBEB"/>
<path d="M26.38 191.88C31.78 187.22 38.22 184.28 45.43 184.26C52.58 184.24 59.63 186.78 64.86 191.7C66.73 193.46 69.57 190.65 67.7 188.89C61.7 183.26 53.66 180.25 45.45 180.27C37.15 180.29 29.77 183.68 23.57 189.04C21.62 190.72 24.44 193.55 26.38 191.88Z" fill="#EBEBEB"/>
<path d="M31.14 201.039C34.76 197.129 39.83 194.679 45.18 194.559C50.68 194.429 56 196.699 59.82 200.629C61.61 202.469 64.45 199.659 62.66 197.819C58.13 193.169 51.72 190.419 45.2 190.569C38.83 190.719 32.65 193.529 28.33 198.209C26.59 200.089 29.39 202.939 31.14 201.049V201.039Z" fill="#EBEBEB"/>
<path d="M202.559 18.8998C203.159 14.5098 196.969 10.8998 192.319 10.5298C190.099 10.3498 187.799 10.6898 185.689 9.95982C181.139 8.36982 179.319 2.48982 174.869 0.61982C171.549 -0.78018 167.719 0.46982 164.499 2.08982C161.279 3.70982 158.099 5.74982 154.499 5.97982C151.369 6.17982 147.969 5.01982 145.229 6.54982C143.189 7.68982 142.119 10.0398 140.239 11.4298C138.399 12.7898 135.999 13.0698 133.719 13.1998C131.439 13.3198 129.069 13.3498 126.989 14.2998C124.909 15.2498 123.189 17.4498 123.619 19.6998L202.539 18.9198L202.559 18.8998Z" fill="#EBEBEB"/>
<path d="M83.1096 93.0098C83.6496 89.0798 78.0996 85.8398 73.9296 85.5098C71.9396 85.3498 69.8796 85.6498 67.9896 84.9998C63.9096 83.5798 62.2796 78.2998 58.2896 76.6198C55.3096 75.3598 51.8796 76.4798 48.9996 77.9398C46.1196 79.3998 43.2596 81.2198 40.0296 81.4298C37.2196 81.6098 34.1796 80.5698 31.7196 81.9398C29.8896 82.9598 28.9296 85.0698 27.2496 86.3098C25.5996 87.5298 23.4496 87.7798 21.3996 87.8998C19.3496 88.0198 17.2296 88.0298 15.3696 88.8898C13.5096 89.7398 11.9596 91.7098 12.3496 93.7298L83.0996 93.0298L83.1096 93.0098Z" fill="#F5F5F5"/>
<path d="M457.839 90.2302C458.419 86.0202 452.479 82.5502 448.009 82.1902C445.879 82.0202 443.669 82.3402 441.649 81.6402C437.279 80.1202 435.529 74.4702 431.269 72.6702C428.079 71.3302 424.409 72.5202 421.319 74.0802C418.229 75.6402 415.169 77.5902 411.719 77.8102C408.719 78.0002 405.449 76.8902 402.829 78.3602C400.869 79.4502 399.849 81.7102 398.039 83.0402C396.269 84.3402 393.969 84.6202 391.779 84.7402C389.589 84.8602 387.319 84.8802 385.319 85.7902C383.319 86.7002 381.669 88.8102 382.089 90.9702L457.839 90.2202V90.2302Z" fill="#F5F5F5"/>
<path d="M448.92 439.52C448.92 439.66 348.42 439.78 224.47 439.78C100.52 439.78 0 439.66 0 439.52C0 439.38 100.48 439.26 224.47 439.26C348.46 439.26 448.92 439.38 448.92 439.52Z" fill="#263238"/>
<path d="M395.16 395.53C397.16 396.4 398.64 398.25 399.38 400.31C400.12 402.36 400.19 404.61 399.94 406.78C399.46 410.98 397.08 415.22 394.51 418.57C390.98 415.48 390.16 410.1 389.92 407.35C389.54 402.99 391.5 394.89 395.16 395.54" fill="#FF725E"/>
<path d="M398.61 425.49C398.04 423.12 399.03 420.51 400.85 418.89C402.67 417.27 405.22 416.58 407.65 416.77C408.77 416.86 409.99 417.18 410.63 418.11C411.23 418.98 411.16 420.18 410.68 421.12C410.19 422.05 409.35 422.75 408.45 423.31C405.39 425.23 402.07 426.53 398.61 425.49Z" fill="#FF725E"/>
<path d="M394.08 438.359C394.08 438.359 394.11 438.049 394.21 437.499C394.32 436.889 394.46 436.109 394.64 435.169C395.03 433.219 395.53 430.429 397.05 427.719C398.54 425.019 400.63 423.029 402.39 422.039C403.26 421.529 404.03 421.229 404.57 421.079C404.84 420.989 405.05 420.959 405.2 420.919C405.34 420.889 405.42 420.879 405.42 420.889C405.44 420.959 404.2 421.179 402.5 422.229C400.8 423.249 398.78 425.219 397.31 427.869C395.83 430.519 395.29 433.269 394.85 435.209C394.64 436.189 394.46 436.979 394.33 437.519C394.2 438.059 394.11 438.359 394.09 438.359H394.08Z" fill="#263238"/>
<path d="M394.21 401.83C394.21 401.83 394.24 401.96 394.25 402.21C394.27 402.49 394.29 402.85 394.31 403.29C394.36 404.23 394.42 405.59 394.47 407.27C394.58 410.63 394.66 415.28 394.64 420.42C394.62 425.56 394.49 430.21 394.35 433.57C394.28 435.25 394.21 436.61 394.16 437.55C394.13 437.99 394.11 438.35 394.09 438.63C394.07 438.88 394.05 439.01 394.04 439.01C394.03 439.01 394.02 438.88 394.02 438.63C394.02 438.35 394.02 437.99 394.04 437.55C394.06 436.57 394.1 435.22 394.14 433.57C394.22 430.21 394.31 425.56 394.34 420.43C394.36 415.3 394.31 410.65 394.26 407.29C394.23 405.64 394.21 404.29 394.2 403.31C394.2 402.87 394.2 402.51 394.2 402.23C394.2 401.98 394.2 401.85 394.22 401.85L394.21 401.83Z" fill="#263238"/>
<path d="M392.5 428.05C391.7 422.97 388.27 418.38 383.63 416.16C382.45 415.59 380.91 415.22 379.94 416.1C378.97 416.98 379.19 418.56 379.66 419.78C381.64 424.87 386.96 428.46 392.42 428.39" fill="#FF725E"/>
<path d="M384.2 420.13C384.2 420.13 384.48 420.23 384.95 420.46C385.19 420.57 385.48 420.71 385.8 420.91C386.12 421.11 386.5 421.3 386.88 421.59C387.27 421.86 387.7 422.15 388.11 422.52C388.55 422.86 388.98 423.28 389.42 423.71C390.29 424.61 391.17 425.68 391.92 426.92C392.66 428.17 393.19 429.44 393.56 430.64C393.73 431.24 393.89 431.82 393.98 432.37C394.1 432.91 394.14 433.43 394.19 433.9C394.25 434.37 394.23 434.8 394.25 435.17C394.27 435.54 394.25 435.87 394.22 436.13C394.18 436.66 394.15 436.94 394.13 436.94C394.06 436.94 394.18 435.77 393.98 433.92C393.92 433.46 393.86 432.95 393.73 432.42C393.64 431.88 393.47 431.32 393.29 430.73C392.91 429.56 392.38 428.31 391.65 427.09C390.91 425.87 390.06 424.82 389.21 423.92C388.78 423.48 388.36 423.07 387.93 422.72C387.52 422.35 387.11 422.05 386.73 421.77C385.21 420.68 384.15 420.2 384.18 420.14L384.2 420.13Z" fill="#263238"/>
<path d="M126.52 439.529C126.44 439.539 126.24 438.439 125.84 436.679C125.44 434.919 124.81 432.51 123.91 429.92C123 427.33 122 425.05 121.22 423.42C120.44 421.79 119.92 420.8 119.99 420.76C120.04 420.73 120.68 421.649 121.55 423.249C122.42 424.839 123.49 427.129 124.4 429.749C125.31 432.369 125.89 434.819 126.2 436.609C126.51 438.399 126.59 439.519 126.52 439.529Z" fill="#263238"/>
<path d="M135.389 396.26C135.389 396.26 135.339 396.87 135.139 397.96C134.939 399.04 134.669 400.61 134.349 402.55C133.709 406.43 132.969 411.82 132.509 417.8C132.059 423.79 131.969 429.22 131.999 433.16C132.019 435.13 132.049 436.72 132.079 437.82C132.109 438.92 132.099 439.53 132.069 439.53C132.029 439.53 131.969 438.93 131.879 437.83C131.789 436.73 131.699 435.14 131.639 433.17C131.509 429.23 131.539 423.77 131.989 417.77C132.449 411.77 133.249 406.37 133.979 402.5C134.339 400.56 134.669 399 134.929 397.93C135.179 396.86 135.339 396.27 135.379 396.28L135.389 396.26Z" fill="#263238"/>
<path d="M149.63 421.17C149.69 421.22 148.99 422.1 147.97 423.6C146.95 425.1 145.66 427.24 144.55 429.77C143.45 432.3 142.74 434.7 142.33 436.47C141.92 438.23 141.75 439.35 141.67 439.34C141.61 439.34 141.65 438.2 141.97 436.4C142.29 434.6 142.95 432.14 144.07 429.57C145.2 427.01 146.56 424.85 147.67 423.4C148.78 421.94 149.59 421.14 149.63 421.18V421.17Z" fill="#263238"/>
<path d="M323.97 424.42C324.03 424.39 324.54 425.14 325.29 426.41C326.03 427.68 326.99 429.48 327.95 431.52C328.9 433.56 329.66 435.45 330.16 436.84C330.66 438.23 330.91 439.11 330.84 439.13C330.77 439.16 330.4 438.32 329.82 436.98C329.24 435.63 328.43 433.78 327.48 431.75C326.53 429.72 325.63 427.91 324.97 426.6C324.31 425.29 323.91 424.47 323.98 424.43L323.97 424.42Z" fill="#263238"/>
<path d="M342.37 406.21C342.37 406.21 342.31 406.68 342.12 407.51C341.9 408.44 341.63 409.61 341.31 411.01C340.64 413.97 339.83 418.07 339.22 422.66C338.62 427.24 338.33 431.42 338.21 434.45C338.16 435.88 338.12 437.09 338.08 438.04C338.05 438.89 338.02 439.36 337.99 439.36C337.95 439.36 337.92 438.89 337.88 438.04C337.84 437.19 337.82 435.96 337.84 434.44C337.87 431.4 338.1 427.2 338.71 422.59C339.32 417.99 340.19 413.87 340.95 410.93C341.33 409.46 341.66 408.27 341.92 407.46C342.18 406.65 342.33 406.21 342.37 406.22V406.21Z" fill="#263238"/>
<path d="M209.27 414.34C209.27 414.34 209.61 414.56 210.17 415.04C210.74 415.51 211.51 416.25 212.42 417.2C214.24 419.1 216.52 421.98 218.45 425.53C220.37 429.08 221.54 432.56 222.14 435.13C222.44 436.41 222.64 437.46 222.72 438.19C222.81 438.92 222.85 439.33 222.81 439.33C222.72 439.34 222.47 437.74 221.78 435.22C221.09 432.7 219.88 429.29 217.99 425.78C216.09 422.28 213.89 419.4 212.15 417.45C210.42 415.5 209.21 414.41 209.27 414.34Z" fill="#263238"/>
<path d="M226.59 403.7C226.59 403.7 226.64 404.21 226.63 405.12C226.63 406.13 226.63 407.43 226.62 408.98C226.62 412.24 226.75 416.74 227.18 421.69C227.61 426.64 228.27 431.1 228.83 434.31C229.1 435.84 229.33 437.12 229.51 438.11C229.67 439.01 229.75 439.51 229.71 439.52C229.68 439.52 229.53 439.04 229.31 438.16C229.08 437.28 228.79 435.99 228.47 434.38C227.82 431.18 227.1 426.71 226.67 421.74C226.24 416.77 226.17 412.24 226.26 408.98C226.3 407.35 226.36 406.02 226.44 405.11C226.51 404.2 226.56 403.7 226.6 403.7H226.59Z" fill="#263238"/>
<path d="M241.9 424.9C242.05 424.98 240.32 427.98 239.14 432.04C237.93 436.09 237.75 439.54 237.58 439.53C237.52 439.53 237.48 438.66 237.6 437.26C237.72 435.87 238.03 433.94 238.64 431.89C239.25 429.84 240.03 428.05 240.68 426.82C241.33 425.58 241.84 424.87 241.89 424.91L241.9 424.9Z" fill="#263238"/>
<path d="M37.3903 344.38H25.7803V436.55H37.3903V344.38Z" fill="#455A64"/>
<path d="M37.39 436.55C37.39 436.55 37.38 436.38 37.37 436.07C37.37 435.74 37.37 435.28 37.35 434.69C37.35 433.46 37.33 431.68 37.31 429.39C37.29 424.78 37.27 418.12 37.23 409.85C37.2 393.3 37.16 370.3 37.12 344.39L37.38 344.65C33.67 344.65 29.75 344.65 25.77 344.65L26.03 344.39C25.97 384.76 25.91 419.72 25.89 436.56L25.77 436.44C29.52 436.47 32.41 436.49 34.38 436.51C35.35 436.52 36.09 436.53 36.61 436.54C37.11 436.54 37.38 436.56 37.38 436.56C37.38 436.56 37.14 436.57 36.65 436.58C36.13 436.58 35.4 436.6 34.44 436.61C32.45 436.63 29.54 436.65 25.76 436.68H25.64V436.56C25.61 419.73 25.56 384.77 25.5 344.39L25.76 344.13C29.74 344.13 33.66 344.13 37.37 344.13H37.63V344.39C37.59 370.38 37.55 393.44 37.52 410.04C37.49 418.29 37.46 424.92 37.44 429.52C37.42 431.78 37.41 433.54 37.4 434.76C37.4 435.34 37.39 435.79 37.38 436.11C37.38 436.41 37.36 436.56 37.36 436.56L37.39 436.55Z" fill="#263238"/>
<g opacity="0.3">
<path d="M37.3893 346.62H25.7793V350.46H37.3893V346.62Z" fill="black"/>
</g>
<path d="M284.39 344.38H272.78V436.55H284.39V344.38Z" fill="#455A64"/>
<path d="M284.39 436.55C284.39 436.55 284.38 436.38 284.37 436.07C284.37 435.74 284.37 435.28 284.35 434.69C284.35 433.46 284.33 431.68 284.31 429.39C284.29 424.78 284.27 418.12 284.23 409.85C284.2 393.3 284.16 370.3 284.12 344.39L284.38 344.65C280.67 344.65 276.75 344.65 272.77 344.65L273.03 344.39C272.97 384.76 272.91 419.72 272.89 436.56L272.77 436.44C276.52 436.47 279.41 436.49 281.38 436.51C282.35 436.52 283.09 436.53 283.61 436.54C284.11 436.54 284.38 436.56 284.38 436.56C284.38 436.56 284.14 436.57 283.65 436.58C283.13 436.58 282.4 436.6 281.44 436.61C279.45 436.63 276.54 436.65 272.76 436.68H272.64V436.56C272.61 419.73 272.56 384.77 272.5 344.39L272.76 344.13C276.74 344.13 280.66 344.13 284.37 344.13H284.63V344.39C284.59 370.38 284.55 393.44 284.52 410.04C284.49 418.29 284.46 424.92 284.44 429.52C284.42 431.78 284.41 433.54 284.4 434.76C284.4 435.34 284.39 435.79 284.38 436.11C284.38 436.41 284.36 436.56 284.36 436.56L284.39 436.55Z" fill="#263238"/>
<path d="M266.19 263.64H254.58V340.47H266.19V263.64Z" fill="#455A64"/>
<path d="M266.2 340.469C266.2 340.469 266.19 340.329 266.18 340.069C266.18 339.789 266.18 339.409 266.16 338.919C266.16 337.889 266.14 336.409 266.12 334.509C266.1 330.669 266.08 325.129 266.04 318.249C266.01 304.469 265.97 285.309 265.93 263.649L266.19 263.909C262.47 263.909 258.56 263.909 254.58 263.909C255.09 263.389 254.72 263.779 254.84 263.669V265.199V266.739C254.84 267.769 254.84 268.789 254.84 269.809C254.84 271.849 254.84 273.859 254.84 275.859C254.84 279.849 254.84 283.759 254.84 287.559C254.84 295.159 254.82 302.339 254.81 308.949C254.77 322.149 254.74 333.059 254.71 340.489L254.58 340.359C258.31 340.389 261.19 340.419 263.17 340.429C264.14 340.439 264.88 340.449 265.41 340.459C265.92 340.459 266.19 340.489 266.19 340.489C266.19 340.489 265.95 340.509 265.46 340.519C264.94 340.519 264.2 340.539 263.24 340.549C261.24 340.569 258.33 340.589 254.57 340.619H254.44V340.489C254.42 333.059 254.38 322.149 254.34 308.949C254.34 302.339 254.32 295.159 254.31 287.559C254.31 283.759 254.31 279.849 254.31 275.859C254.31 273.859 254.31 271.849 254.31 269.809C254.31 268.789 254.31 267.769 254.31 266.739V265.199V264.429V263.679C254.43 263.559 254.05 263.919 254.57 263.399C258.55 263.399 262.46 263.399 266.18 263.399H266.44V263.659C266.4 285.389 266.36 304.619 266.33 318.449C266.3 325.309 266.27 330.829 266.25 334.649C266.23 336.519 266.22 337.979 266.21 338.999C266.21 339.469 266.2 339.839 266.19 340.119C266.19 340.369 266.18 340.489 266.17 340.489L266.2 340.469Z" fill="#263238"/>
<path d="M59.61 263.64H48V340.47H59.61V263.64Z" fill="#455A64"/>
<path d="M59.62 340.469C59.62 340.469 59.61 340.329 59.6 340.069C59.6 339.789 59.6 339.409 59.58 338.919C59.58 337.889 59.56 336.409 59.54 334.509C59.52 330.669 59.5 325.129 59.46 318.249C59.43 304.469 59.39 285.309 59.35 263.649L59.61 263.909C55.89 263.909 51.98 263.909 48 263.909C48.51 263.389 48.14 263.779 48.26 263.669V265.199V266.739C48.26 267.769 48.26 268.789 48.26 269.809C48.26 271.849 48.26 273.859 48.26 275.859C48.26 279.849 48.26 283.759 48.26 287.559C48.26 295.159 48.24 302.339 48.23 308.949C48.19 322.149 48.16 333.059 48.13 340.489L48 340.359C51.73 340.389 54.61 340.419 56.59 340.429C57.56 340.439 58.3 340.449 58.83 340.459C59.34 340.459 59.61 340.489 59.61 340.489C59.61 340.489 59.37 340.509 58.88 340.519C58.36 340.519 57.62 340.539 56.66 340.549C54.66 340.569 51.75 340.589 47.99 340.619H47.86V340.489C47.84 333.059 47.8 322.149 47.76 308.949C47.76 302.339 47.74 295.159 47.73 287.559C47.73 283.759 47.73 279.849 47.73 275.859C47.73 273.859 47.73 271.849 47.73 269.809C47.73 268.789 47.73 267.769 47.73 266.739V265.199V264.429V263.679C47.85 263.559 47.47 263.919 47.99 263.399C51.97 263.399 55.88 263.399 59.6 263.399H59.86V263.659C59.82 285.389 59.78 304.619 59.75 318.449C59.72 325.309 59.69 330.829 59.67 334.649C59.65 336.519 59.64 337.979 59.63 338.999C59.63 339.469 59.62 339.839 59.61 340.119C59.61 340.369 59.6 340.489 59.59 340.489L59.62 340.469Z" fill="#263238"/>
<path d="M288.6 254.87H25.0898V267.17H288.6V254.87Z" fill="#455A64"/>
<path d="M288.6 267.17C288.6 267.17 288.6 266.92 288.59 266.42C288.59 265.91 288.59 265.17 288.57 264.16C288.57 262.13 288.55 259.07 288.53 254.87L288.6 254.94C256.2 254.96 150.41 255.04 25.0996 255.13H25.0896L25.3496 254.87C25.3496 259.08 25.3496 263.27 25.3496 267.17L25.0896 266.91C98.4396 266.95 164.28 266.99 211.79 267.02C235.56 267.05 254.75 267.08 268 267.1C274.63 267.12 279.77 267.13 283.26 267.14C285 267.14 286.33 267.15 287.23 267.16C288.13 267.16 288.59 267.18 288.59 267.18C288.59 267.18 288.15 267.19 287.26 267.2C286.36 267.2 285.05 267.21 283.32 267.22C279.84 267.22 274.72 267.24 268.12 267.26C254.88 267.28 235.72 267.31 211.97 267.34C164.41 267.37 98.4996 267.41 25.0696 267.45H24.8096V267.19C24.8096 263.3 24.8096 259.1 24.8096 254.89V254.63H25.0796C150.39 254.72 256.17 254.79 288.58 254.82H288.65V254.89C288.63 259.11 288.62 262.19 288.61 264.22C288.61 265.22 288.6 265.96 288.59 266.46C288.59 266.95 288.58 267.18 288.58 267.18L288.6 267.17Z" fill="#263238"/>
<path d="M289.29 273.32H25.7803V285.62H289.29V273.32Z" fill="#455A64"/>
<path d="M289.29 285.62C289.29 285.62 289.29 285.37 289.28 284.87C289.28 284.36 289.28 283.62 289.26 282.61C289.26 280.58 289.24 277.52 289.22 273.32L289.29 273.39C256.89 273.41 151.1 273.49 25.79 273.58H25.78L26.04 273.32C26.04 277.53 26.04 281.72 26.04 285.62L25.78 285.36C99.13 285.4 164.97 285.44 212.48 285.47C236.25 285.5 255.44 285.53 268.69 285.55C275.32 285.57 280.46 285.58 283.95 285.59C285.69 285.59 287.02 285.6 287.92 285.61C288.82 285.61 289.28 285.63 289.28 285.63C289.28 285.63 288.84 285.64 287.95 285.65C287.05 285.65 285.74 285.66 284.01 285.67C280.53 285.67 275.41 285.69 268.81 285.71C255.57 285.73 236.41 285.76 212.66 285.79C165.1 285.82 99.19 285.86 25.76 285.9H25.5V285.64C25.5 281.75 25.5 277.56 25.5 273.34V273.08H25.77C151.08 273.17 256.86 273.24 289.27 273.27H289.34V273.34C289.32 277.56 289.31 280.64 289.3 282.67C289.3 283.67 289.29 284.41 289.28 284.91C289.28 285.4 289.27 285.63 289.27 285.63L289.29 285.62Z" fill="#263238"/>
<path d="M289.29 292.45H25.7803V304.75H289.29V292.45Z" fill="#455A64"/>
<path d="M289.29 304.75C289.29 304.75 289.29 304.5 289.28 304C289.28 303.49 289.28 302.75 289.26 301.74C289.26 299.71 289.24 296.65 289.22 292.45L289.29 292.52C256.89 292.54 151.1 292.62 25.79 292.71H25.78L26.04 292.45C26.04 296.66 26.04 300.85 26.04 304.75L25.78 304.49C99.13 304.53 164.97 304.57 212.48 304.6C236.25 304.63 255.44 304.66 268.69 304.68C275.32 304.7 280.46 304.71 283.95 304.72C285.69 304.72 287.02 304.73 287.92 304.74C288.82 304.74 289.28 304.76 289.28 304.76C289.28 304.76 288.84 304.77 287.95 304.78C287.05 304.78 285.74 304.79 284.01 304.8C280.53 304.8 275.41 304.82 268.81 304.84C255.57 304.86 236.41 304.89 212.66 304.92C165.1 304.95 99.19 304.99 25.76 305.03H25.5V304.77C25.5 300.88 25.5 296.68 25.5 292.47V292.21H25.77C151.08 292.3 256.86 292.37 289.27 292.4H289.34V292.47C289.32 296.69 289.31 299.77 289.3 301.8C289.3 302.8 289.29 303.54 289.28 304.04C289.28 304.53 289.27 304.76 289.27 304.76L289.29 304.75Z" fill="#263238"/>
<path d="M289.29 311.58H25.7803V323.88H289.29V311.58Z" fill="#455A64"/>
<path d="M289.29 323.88C289.29 323.88 289.29 323.63 289.28 323.13C289.28 322.62 289.28 321.88 289.26 320.87C289.26 318.84 289.24 315.78 289.22 311.58L289.29 311.65C256.89 311.67 151.1 311.75 25.79 311.84H25.78L26.04 311.58C26.04 315.79 26.04 319.98 26.04 323.88L25.78 323.62C99.13 323.66 164.97 323.7 212.48 323.73C236.25 323.76 255.44 323.79 268.69 323.81C275.32 323.83 280.46 323.84 283.95 323.85C285.69 323.85 287.02 323.86 287.92 323.87C288.82 323.87 289.28 323.89 289.28 323.89C289.28 323.89 288.84 323.9 287.95 323.91C287.05 323.91 285.74 323.92 284.01 323.93C280.53 323.93 275.41 323.95 268.81 323.97C255.57 323.99 236.41 324.02 212.66 324.05C165.1 324.08 99.19 324.12 25.76 324.16H25.5V323.9C25.5 320.01 25.5 315.82 25.5 311.6V311.34H25.77C151.08 311.43 256.86 311.5 289.27 311.53H289.34V311.6C289.32 315.82 289.31 318.9 289.3 320.93C289.3 321.93 289.29 322.67 289.28 323.17C289.28 323.66 289.27 323.89 289.27 323.89L289.29 323.88Z" fill="#263238"/>
<path d="M294.08 334.32H14.3301V346.62H294.08V334.32Z" fill="#455A64"/>
<path d="M294.08 346.62C294.08 346.62 294.08 346.37 294.07 345.87C294.07 345.37 294.07 344.62 294.05 343.61C294.05 341.59 294.03 338.52 294.01 334.32L294.08 334.39C260.5 334.41 147.89 334.49 14.3496 334.58H14.3396L14.5996 334.32C14.5996 338.53 14.5996 342.72 14.5996 346.62L14.3396 346.36C92.1796 346.4 162.08 346.44 212.53 346.47C237.77 346.5 258.15 346.53 272.22 346.55C279.26 346.57 284.72 346.58 288.43 346.59C290.28 346.59 291.69 346.6 292.65 346.61C293.6 346.61 294.1 346.63 294.1 346.63C294.1 346.63 293.63 346.64 292.69 346.65C291.74 346.65 290.34 346.66 288.51 346.67C284.81 346.67 279.38 346.69 272.37 346.71C258.31 346.73 237.96 346.76 212.74 346.79C162.24 346.82 92.2696 346.86 14.3596 346.9H14.0996V346.64C14.0996 342.75 14.0996 338.56 14.0996 334.34V334.08H14.3596H14.3696C147.92 334.17 260.52 334.25 294.1 334.27H294.17V334.34C294.15 338.56 294.14 341.64 294.13 343.68C294.13 344.68 294.12 345.42 294.11 345.92C294.11 346.41 294.1 346.64 294.1 346.64L294.08 346.62Z" fill="#263238"/>
<g opacity="0.3">
<path d="M284.389 346.62H272.779V350.46H284.389V346.62Z" fill="black"/>
</g>
<path d="M142.77 192.78L140.26 208.97L133.8 223.71L124.23 217.6L120.83 209L117.98 201.79C117.98 201.79 107.87 204.22 103.84 194.77C101.9 190.21 98.66 180.48 95.83 171.65C92.79 162.15 97.55 151.9 106.78 148.11L107.7 147.73C117.82 144.24 126.44 150.89 129.65 161.1L142.78 192.79" fill="#A2675F"/>
<path d="M117.96 201.78C117.96 201.78 124.17 199.8 128.9 193.16C128.9 193.16 128.79 201.2 118.95 204.25L117.96 201.78Z" fill="#7A4A45"/>
<path d="M102 178.89C102.27 179.62 103.11 179.99 103.87 179.72C104.63 179.45 105.03 178.65 104.77 177.92C104.5 177.19 103.66 176.82 102.9 177.09C102.14 177.36 101.73 178.16 102 178.89Z" fill="#263238"/>
<path d="M99.43 175C99.67 175.11 100.39 173.92 101.85 173.33C103.3 172.71 104.68 173.02 104.77 172.78C104.82 172.67 104.51 172.42 103.91 172.27C103.31 172.12 102.39 172.11 101.49 172.49C100.58 172.87 99.96 173.52 99.66 174.04C99.35 174.57 99.33 174.95 99.45 175H99.43Z" fill="#263238"/>
<path d="M114.73 173.211C115 173.941 115.84 174.311 116.6 174.041C117.36 173.771 117.76 172.971 117.5 172.241C117.23 171.511 116.39 171.141 115.63 171.411C114.87 171.681 114.46 172.481 114.73 173.211Z" fill="#263238"/>
<path d="M113.81 168.61C114.04 168.74 114.88 167.64 116.4 167.21C117.91 166.75 119.25 167.21 119.36 166.98C119.42 166.87 119.14 166.59 118.56 166.38C117.98 166.17 117.07 166.06 116.13 166.34C115.19 166.62 114.49 167.2 114.14 167.68C113.78 168.17 113.72 168.55 113.83 168.61H113.81Z" fill="#263238"/>
<path d="M113.4 182.82C113.37 182.73 112.4 182.95 110.85 183.37C110.46 183.48 110.08 183.56 109.91 183.33C109.71 183.1 109.7 182.63 109.7 182.12C109.68 181.07 109.66 179.98 109.63 178.83C109.5 174.16 109.24 170.38 109.05 170.39C108.86 170.39 108.82 174.19 108.95 178.86C108.99 180.01 109.03 181.1 109.07 182.15C109.1 182.63 109.06 183.21 109.48 183.69C109.7 183.93 110.05 184.02 110.32 183.98C110.59 183.95 110.8 183.87 110.99 183.81C112.5 183.28 113.42 182.91 113.39 182.82H113.4Z" fill="#263238"/>
<path d="M111.02 162.39C111.33 162.73 112.71 161.94 114.51 161.44C116.3 160.91 117.89 160.84 117.97 160.39C118 160.18 117.61 159.9 116.89 159.75C116.18 159.59 115.15 159.59 114.07 159.9C113 160.21 112.12 160.76 111.6 161.27C111.08 161.78 110.89 162.22 111.03 162.39H111.02Z" fill="#263238"/>
<path d="M97.3395 169.26C97.7295 169.49 98.5995 168.73 99.7995 168.21C100.98 167.65 102.13 167.51 102.22 167.07C102.25 166.86 101.96 166.59 101.38 166.46C100.81 166.33 99.9695 166.38 99.1495 166.74C98.3295 167.11 97.7295 167.71 97.4495 168.22C97.1595 168.74 97.1595 169.14 97.3395 169.25V169.26Z" fill="#263238"/>
<path d="M131.75 168.44C131.88 168.3 137.48 163.82 139.95 170.4C142.42 176.98 135.3 178.1 135.22 177.91C135.14 177.73 131.75 168.43 131.75 168.43V168.44Z" fill="#A2675F"/>
<path d="M136.3 174.68C136.3 174.68 136.44 174.72 136.67 174.73C136.89 174.75 137.24 174.68 137.53 174.43C138.13 173.91 138.3 172.59 137.89 171.39C137.68 170.78 137.34 170.26 136.95 169.87C136.57 169.46 136.13 169.24 135.76 169.31C135.38 169.36 135.21 169.66 135.2 169.88C135.18 170.1 135.27 170.21 135.24 170.24C135.23 170.26 135.06 170.18 135.01 169.89C134.99 169.75 135.01 169.57 135.11 169.38C135.22 169.19 135.43 169.04 135.68 168.98C136.2 168.82 136.83 169.12 137.26 169.55C137.72 169.97 138.11 170.56 138.34 171.24C138.79 172.58 138.58 174.08 137.73 174.71C137.31 175 136.87 175.01 136.62 174.93C136.36 174.84 136.27 174.71 136.28 174.69L136.3 174.68Z" fill="#7A4A45"/>
<path d="M90.2099 160.99C89.9799 159.61 90.4099 158.03 91.6099 157.31C90.5699 156.32 90.3399 154.59 91.0799 153.36C91.8199 152.13 93.4499 151.52 94.8099 151.97C93.9099 150.02 95.6899 147.42 97.8299 147.55C97.2899 146.43 97.6199 144.96 98.5899 144.18C99.5599 143.4 101.07 143.4 102.05 144.18C102.45 141.29 106.12 139.42 108.7 140.79C110.91 138.8 114.69 138.89 116.79 141C118.96 140.24 121.56 140.97 123.02 142.74C124.43 142.29 126.06 142.65 127.16 143.64C128.25 144.63 128.76 146.23 128.45 147.67C130.42 147.79 131.83 150.25 130.93 152C132.09 152.08 133.17 152.87 133.59 153.94C134.02 155.02 133.76 156.33 132.97 157.18C133.97 156.9 134.88 158.01 134.97 159.05C135.06 160.09 134.68 161.11 134.66 162.15C134.65 163.01 134.89 163.85 134.93 164.71C135.01 166.32 134.32 167.95 133.13 169.03C133.21 169.07 133.3 169.11 133.38 169.16C133.89 169.92 132.97 170.97 132.05 170.96C131.13 170.96 130.35 170.33 129.61 169.79C128.75 169.18 127.82 168.63 127.19 167.78C126.57 166.93 126.35 165.66 127.03 164.86C125.76 164.95 124.56 164.11 123.87 163.03C123.18 161.96 122.9 160.68 122.62 159.43C122.22 157.59 121.82 155.74 121.42 153.9C119.04 154.81 116.17 154.26 114.3 152.53C113.15 154.52 110.05 154.99 108.36 153.43C108.57 156.07 106.34 158.65 103.71 158.85C104.52 160.09 102.62 162.33 101.45 163.23C100.27 164.13 98.2299 163.88 98.2299 163.88C98.2299 163.88 96.5099 166.16 95.0599 166.18C93.6399 166.2 91.3499 165.31 91.6199 163.69C91.6199 163.69 90.4199 162.36 90.1899 160.98L90.2099 160.99Z" fill="#263238"/>
<path d="M131.26 151.85C131.19 151.85 131.34 152.34 130.96 152.95C130.77 153.24 130.43 153.53 129.98 153.58C129.53 153.63 128.97 153.43 128.68 152.99L128.44 152.63L128.25 153.02C127.98 153.58 127.31 154.04 126.58 154.04C125.76 154.04 125.05 153.41 124.86 152.73L124.75 152.33L124.46 152.62C124.09 152.99 123.58 153.16 123.14 153.15C122.7 153.15 122.32 152.97 122.05 152.78C121.51 152.37 121.39 151.94 121.33 151.97C121.29 151.97 121.3 152.46 121.86 153.01C122.14 153.27 122.57 153.52 123.12 153.56C123.66 153.6 124.3 153.43 124.8 152.97L124.4 152.86C124.62 153.74 125.49 154.55 126.58 154.57C127.53 154.57 128.36 153.98 128.7 153.24L128.27 153.27C128.72 153.89 129.46 154.09 130.04 153.99C130.65 153.89 131.05 153.47 131.23 153.1C131.59 152.31 131.29 151.81 131.26 151.85Z" fill="#455A64"/>
<path d="M134.81 157.67C134.81 157.67 134.65 157.95 134.23 158.23C133.84 158.5 132.98 158.73 132.31 158.21L132.09 158.04L131.99 158.31C131.79 158.84 131.23 159.36 130.53 159.46C129.85 159.57 129.02 159.16 128.69 158.44L128.5 158.02L128.24 158.4C128.18 158.49 128.09 158.58 128 158.66C127.57 159.01 126.92 159.05 126.51 158.76C126.08 158.48 125.86 157.93 125.92 157.49L126 156.99L125.57 157.25C125.04 157.57 124.42 157.62 123.92 157.5C123.42 157.38 123.03 157.09 122.78 156.81C122.27 156.22 122.23 155.72 122.16 155.74C122.13 155.73 122.06 156.27 122.56 156.99C122.81 157.33 123.23 157.71 123.82 157.88C124.4 158.05 125.14 158.03 125.81 157.66L125.46 157.42C125.35 158.06 125.62 158.78 126.23 159.19C126.84 159.62 127.74 159.56 128.34 159.07C128.48 158.96 128.6 158.83 128.69 158.69L128.23 158.65C128.68 159.59 129.72 160.08 130.62 159.93C131.52 159.78 132.17 159.12 132.4 158.43L132.08 158.52C132.53 158.85 133.04 158.9 133.44 158.83C133.85 158.77 134.17 158.58 134.39 158.4C134.83 158.01 134.86 157.65 134.83 157.66L134.81 157.67Z" fill="#455A64"/>
<path d="M98.6104 147.01C98.6104 147.01 98.7103 146.67 99.1703 146.29C99.4003 146.11 99.7304 145.94 100.14 145.95C100.54 145.95 101.02 146.15 101.32 146.56L101.56 146.89L101.62 146.48C101.72 145.74 102.26 144.9 103.16 144.53C104.03 144.15 105.28 144.4 105.98 145.28L106.28 145.66L106.41 145.19C106.64 144.34 107.32 143.56 108.21 143.19C109.09 142.8 110.2 142.94 111.04 143.53C111.38 143.76 111.67 144.07 111.88 144.41L112.03 144.65L112.26 144.48C113.39 143.65 115.05 143.79 115.95 144.65C116.89 145.51 117.11 146.89 116.74 147.87L116.6 148.24L116.98 148.16C117.9 147.96 118.8 148.19 119.44 148.6C120.09 149.01 120.48 149.59 120.69 150.1C121.11 151.14 120.93 151.82 121 151.81C121.02 151.81 121.07 151.66 121.1 151.35C121.12 151.04 121.11 150.57 120.92 150.01C120.73 149.46 120.34 148.79 119.63 148.31C118.94 147.83 117.95 147.53 116.89 147.74L117.13 148.03C117.59 146.89 117.36 145.32 116.28 144.29C115.2 143.26 113.3 143.07 111.94 144.06L112.32 144.13C112.07 143.72 111.73 143.36 111.33 143.09C110.35 142.4 109.04 142.24 108 142.71C106.96 143.15 106.19 144.06 105.93 145.07L106.36 144.98C105.49 143.93 104.03 143.68 103 144.15C101.96 144.62 101.38 145.59 101.3 146.45L101.6 146.37C101.21 145.87 100.63 145.68 100.16 145.69C99.6704 145.7 99.3004 145.93 99.0704 146.15C98.8404 146.38 98.7203 146.6 98.6703 146.76C98.6203 146.92 98.6203 147 98.6303 147.01H98.6104Z" fill="#455A64"/>
<path d="M117.74 181.23C117.5 181.31 118.15 182.9 117.25 184.58C116.36 186.27 114.6 186.78 114.68 187.01C114.7 187.12 115.18 187.16 115.9 186.89C116.61 186.63 117.54 185.98 118.09 184.95C118.63 183.92 118.61 182.85 118.4 182.18C118.19 181.49 117.85 181.17 117.74 181.23Z" fill="#263238"/>
<path d="M107.999 210.03L100.069 232.35L101.899 256.75L106.949 298.9C106.949 298.9 125.519 292.63 126.349 293.26C127.179 293.89 118.139 250.53 118.139 250.53L124.689 215.26L124.269 204.87L108.009 210.04L107.999 210.03Z" fill="#FF725E"/>
<path d="M108 210.029L99.2802 230.039L81.3202 237.109L62.4102 242.929L65.1002 256.479C65.6502 259.259 68.4402 260.989 71.1702 260.249L87.1002 255.979L101.94 255.299L109.66 237.359L107.99 210.039L108 210.029Z" fill="#FF725E"/>
<path d="M68.6103 237.35L69.9303 235.71C69.9303 235.71 72.3703 235.7 73.6903 236.53C75.0103 237.36 77.0603 240.4 77.3203 241.98C77.5803 243.56 77.3203 246.6 77.3203 246.6L68.2803 237.35" fill="#A2675F"/>
<path d="M51.0598 227.63C51.0598 227.9 68.0298 245.91 68.0298 245.91L71.2198 249.06H81.4798L61.6798 227.08L53.1398 225.63L51.0498 227.63H51.0598Z" fill="#263238"/>
<path d="M120.01 267.64C120.01 267.64 119.86 267.43 119.62 267.01C119.36 266.54 119.03 265.92 118.61 265.15C117.75 263.52 116.53 261.16 115.12 258.19C113.71 255.22 112.06 251.66 110.62 247.54C110.28 246.5 109.93 245.44 109.69 244.31C109.53 243.76 109.51 243.15 109.42 242.57C109.4 241.99 109.38 241.4 109.38 240.81C109.35 238.44 109.41 235.99 109.5 233.48C109.62 230.31 109.78 227.23 109.97 224.31V224.16L110.12 224.1C111.95 223.3 113.7 222.53 115.39 221.79L115.46 222.24C114.06 222.06 112.71 221.88 111.41 221.72L111.08 221.68L111.25 221.39C113.84 216.92 116.01 213.19 117.56 210.53C118.31 209.27 118.91 208.26 119.35 207.51C119.55 207.19 119.71 206.94 119.84 206.72C119.95 206.54 120.02 206.46 120.03 206.46C120.04 206.46 120 206.57 119.9 206.75C119.78 206.97 119.64 207.24 119.47 207.57C119.05 208.33 118.49 209.36 117.78 210.65C116.27 213.34 114.16 217.1 111.63 221.6L111.47 221.27C112.76 221.43 114.12 221.59 115.52 221.76L116.37 221.86L115.59 222.21C113.91 222.96 112.16 223.74 110.34 224.55L110.49 224.34C110.31 227.25 110.15 230.33 110.04 233.49C109.95 235.99 109.88 238.44 109.91 240.79C109.91 241.38 109.93 241.96 109.95 242.54C110.04 243.1 110.04 243.66 110.2 244.2C110.43 245.3 110.76 246.35 111.1 247.38C112.51 251.47 114.12 255.04 115.48 258.03C116.85 261.01 118.02 263.4 118.82 265.05C119.2 265.84 119.51 266.47 119.74 266.95C119.95 267.39 120.05 267.62 120.04 267.63L120.01 267.64Z" fill="#263238"/>
<path d="M61.0901 237.35C61.0901 237.35 58.5201 239.21 58.5801 240.27C58.6401 241.33 59.2401 242.45 59.8301 242.65C60.4201 242.85 62.2101 243.77 62.2101 243.77C62.2101 243.77 60.6301 245.29 61.0901 246.87C61.5501 248.45 62.6101 248.85 62.6101 248.85C62.6101 248.85 62.6801 250.9 63.2701 252.08C63.8601 253.27 65.7801 253.66 65.7801 253.66C65.7801 253.66 66.8401 255.81 67.7601 256.88C68.6801 257.95 70.5301 258.28 70.5301 258.28C70.5301 258.28 72.9101 258.54 74.1601 257.69C75.4101 256.83 76.8001 255.97 76.8701 253.07C76.8701 253.07 82.5501 250.23 82.6101 248.78C82.6801 247.33 82.0201 246.87 82.0201 246.87L79.1801 247.4C79.1801 247.4 78.7801 245.88 77.9301 245.75C77.0701 245.62 66.7101 248.13 66.7101 248.13C66.7101 248.13 73.7701 247.01 73.9701 245.62C74.1701 244.23 74.2301 243.05 73.1801 242.78C72.1201 242.52 64.6001 243.32 64.6001 243.32L64.2101 241.99C64.2101 241.99 66.2501 242.06 66.2501 240.27C66.2501 238.48 65.1301 238.09 65.1301 238.09L61.1001 237.35H61.0901Z" fill="#A2675F"/>
<path d="M120.01 206.46L120.88 213.35L115.54 243.32L120.95 269.19L148.99 277.48L160.02 272.73L156.26 200.1L146.24 193.06L142.39 190.47L127.94 212.33L120.01 206.46Z" fill="#FAFAFA"/>
<path d="M145.42 192.51L152.43 195.64L177.25 198.98L190.64 269.4L192.32 277.49L217.99 315.9C219.17 317.66 218.6 320.05 216.76 321.1L195.73 333.11C194.12 333.93 192.14 333.42 191.14 331.91L164.42 291.65L151.17 274.7C151.17 274.7 143.24 250.71 142.2 240.49C141.16 230.27 141.6 219.32 142.2 213.58C142.84 207.44 145.41 192.51 145.41 192.51H145.42Z" fill="#FF725E"/>
<path d="M177.24 198.969C180.51 200.689 182.82 203.809 183.51 207.439C185.09 215.799 189.85 230.379 191.64 245.949C194.14 267.729 188.28 274.449 185.52 278.209C182.81 281.889 165.64 289.959 165.64 289.959L152.77 272.809L167.02 261.129L165.77 230.889C165.77 230.889 160.76 224.009 163.27 213.789C165.77 203.569 173.07 198.359 177.24 198.979V198.969Z" fill="#FF725E"/>
<g opacity="0.3">
<path d="M190.52 268.819C188.57 274.109 186.34 278.559 181.8 281.079C176.97 283.759 170.23 287.539 165.64 289.959L169.01 295.179C174.28 294.369 184 288.229 187.17 283.939C190.34 279.649 191.3 274.099 190.53 268.819H190.52Z" fill="black"/>
</g>
<path d="M165.419 232.49C165.419 232.49 165.459 232.64 165.509 232.94C165.559 233.26 165.639 233.71 165.729 234.27C165.919 235.47 166.179 237.2 166.529 239.41C167.199 243.9 168.169 250.37 169.369 258.36L169.389 258.46L169.309 258.53C164.569 262.71 159.019 267.6 152.919 272.98L152.949 272.66C156.909 277.93 161.269 283.72 165.839 289.8L165.519 289.72C169.799 287.56 174.219 285.23 178.609 282.63C179.849 281.88 181.089 281.13 182.269 280.32C183.459 279.53 184.619 278.68 185.589 277.72C187.349 275.6 188.689 273.08 189.659 270.56C191.609 265.45 192.099 260.11 192.059 255.09C191.989 250.06 191.389 245.3 190.699 240.87C190.009 236.44 189.209 232.34 188.419 228.6C186.839 221.13 185.329 215.14 184.269 211.01C183.729 208.97 183.309 207.37 183.019 206.26C182.879 205.73 182.769 205.32 182.699 205.02C182.629 204.74 182.599 204.6 182.599 204.59C182.599 204.59 182.659 204.73 182.749 205C182.839 205.3 182.969 205.7 183.119 206.22C183.439 207.3 183.899 208.89 184.459 210.95C185.589 215.07 187.149 221.05 188.779 228.51C189.589 232.24 190.409 236.35 191.119 240.79C191.829 245.22 192.449 250.01 192.539 255.07C192.599 260.12 192.109 265.53 190.139 270.72C189.139 273.31 187.829 275.82 185.969 278.05C184.929 279.08 183.769 279.93 182.559 280.73C181.359 281.54 180.119 282.3 178.869 283.05C174.459 285.65 170.039 287.99 165.739 290.15L165.549 290.25L165.419 290.08C160.859 284 156.519 278.2 152.569 272.92L152.439 272.75L152.599 272.61C158.719 267.26 164.289 262.39 169.049 258.23L168.989 258.4C167.859 250.4 166.949 243.92 166.309 239.42C166.009 237.2 165.769 235.47 165.609 234.27C165.539 233.7 165.479 233.25 165.439 232.93C165.409 232.63 165.389 232.47 165.399 232.47L165.419 232.49Z" fill="#263238"/>
<path d="M147.29 258.33C147.29 258.33 147.29 258.09 147.34 257.63C147.41 257.12 147.49 256.47 147.6 255.65C147.85 253.87 148.21 251.4 148.64 248.38C149.52 242.24 150.88 233.78 152.21 224.41C152.83 219.87 153.42 215.55 153.95 211.61L154.1 211.87C152.62 211.3 151.21 210.76 149.86 210.24L149.45 210.08L149.82 209.84C151.34 208.85 152.77 207.93 154.08 207.08L153.99 207.27C153.48 203.73 153.07 200.84 152.77 198.77C152.64 197.81 152.54 197.03 152.47 196.45C152.41 195.92 152.38 195.64 152.4 195.63C152.42 195.63 152.48 195.9 152.58 196.43C152.68 197.01 152.82 197.78 152.99 198.74C153.33 200.81 153.8 203.69 154.38 207.21L154.4 207.33L154.29 207.4C152.99 208.27 151.57 209.2 150.06 210.21L150.02 209.81C151.37 210.32 152.79 210.85 154.27 211.41L154.45 211.48L154.42 211.67C153.89 215.61 153.32 219.94 152.71 224.48C151.38 233.85 149.95 242.31 148.99 248.44C148.49 251.46 148.08 253.92 147.78 255.69C147.63 256.5 147.52 257.16 147.43 257.66C147.34 258.11 147.29 258.34 147.27 258.34L147.29 258.33Z" fill="#263238"/>
<path d="M173.48 199.92C173.54 200 172.27 200.88 170.56 202.65C169.7 203.53 168.77 204.67 167.85 206.01C166.96 207.37 166.09 208.93 165.37 210.66C164.67 212.4 164.2 214.13 163.89 215.72C163.61 217.32 163.47 218.78 163.47 220.01C163.45 222.47 163.74 223.99 163.64 224.01C163.6 224.01 163.52 223.64 163.39 222.96C163.32 222.62 163.25 222.2 163.21 221.7C163.17 221.21 163.09 220.64 163.1 220.02C163.05 218.77 163.16 217.28 163.42 215.64C163.71 214.01 164.18 212.24 164.9 210.46C165.63 208.69 166.54 207.1 167.47 205.73C168.43 204.38 169.4 203.24 170.31 202.38C170.74 201.93 171.19 201.58 171.56 201.25C171.93 200.92 172.28 200.67 172.57 200.48C173.14 200.08 173.47 199.88 173.49 199.91L173.48 199.92Z" fill="#263238"/>
<path d="M101.79 255.3C101.65 255.31 101.19 250.46 100.76 244.46C100.34 238.46 100.11 233.59 100.25 233.58C100.39 233.57 100.85 238.42 101.28 244.42C101.7 250.42 101.93 255.29 101.79 255.3Z" fill="#263238"/>
<path d="M186.33 299.45L190.19 307.31L208.02 295.9L201.84 288.91L186.33 299.45Z" fill="#FF725E"/>
<path d="M186.33 299.45C186.33 299.45 186.68 299.16 187.4 298.65C188.19 298.1 189.24 297.35 190.54 296.43C193.34 294.5 197.2 291.83 201.7 288.71L201.88 288.59L202.02 288.75C203.93 290.91 206.02 293.26 208.21 295.73L208.41 295.96L208.15 296.12C207.9 296.28 207.64 296.45 207.37 296.62C200.74 300.83 194.73 304.65 190.28 307.47L190.1 307.58L190.01 307.39C188.87 304.97 187.94 302.99 187.26 301.54C186.97 300.9 186.73 300.38 186.54 299.97C186.38 299.61 186.31 299.43 186.32 299.44C186.34 299.44 186.45 299.64 186.64 300C186.85 300.41 187.12 300.93 187.46 301.56C188.17 302.96 189.15 304.88 190.34 307.23L190.07 307.16C194.5 304.3 200.48 300.44 207.08 296.19C207.35 296.02 207.61 295.85 207.86 295.69L207.81 296.08C205.63 293.61 203.55 291.24 201.65 289.08L201.97 289.12C197.46 292.12 193.61 294.7 190.81 296.57C189.46 297.45 188.36 298.17 187.55 298.7C187.2 298.92 186.9 299.11 186.66 299.27C186.45 299.4 186.34 299.46 186.33 299.46V299.45Z" fill="#263238"/>
<g opacity="0.3">
<path d="M186.51 299.8C186.58 299.95 190.47 311.88 190.47 311.88L207.1 300.07L205.67 297.41L190.19 307.32L186.51 299.81V299.8Z" fill="black"/>
</g>
<g opacity="0.3">
<path d="M152.93 198.92L155.88 208.67L152.93 210.03L156.87 211.97C156.87 211.97 150.65 245.97 149.87 249.07C149.09 252.17 148.13 253.17 148.13 253.17L154.2 211.64L149.95 210.03L154.2 207.25L152.92 198.93L152.93 198.92Z" fill="black"/>
</g>
<path d="M87.1297 252.049C86.9597 252.049 87.2797 248.829 85.9997 245.149C84.7697 241.459 82.5597 239.089 82.6997 238.989C82.7397 238.949 83.3497 239.479 84.1397 240.509C84.9297 241.539 85.8497 243.099 86.4997 244.979C87.1397 246.859 87.3497 248.669 87.3497 249.959C87.3497 251.259 87.1897 252.049 87.1297 252.039V252.049Z" fill="#263238"/>
<g opacity="0.3">
<path d="M100.14 232.62C97.1699 240.01 98.2399 248.13 101.71 255.3C101.17 247.05 100.86 240.62 100.14 232.62Z" fill="black"/>
</g>
<path d="M143.29 198.67C143.29 198.67 143.13 199.04 142.76 199.65C142.34 200.36 141.82 201.22 141.21 202.24C139.92 204.44 138.19 207.5 136.48 210.99C135.32 213.34 134.33 215.58 133.53 217.49L133.41 217.77L133.18 217.59C131.54 216.28 130.29 215.05 129.46 214.16C128.63 213.26 128.21 212.71 128.24 212.68C128.28 212.65 128.77 213.14 129.64 213.98C130.52 214.81 131.8 215.98 133.45 217.24L133.1 217.33C133.87 215.4 134.84 213.13 136 210.77C137.72 207.26 139.5 204.21 140.88 202.05C141.57 200.97 142.15 200.12 142.57 199.54C142.99 198.96 143.24 198.65 143.27 198.67H143.29Z" fill="#263238"/>
<path d="M126.87 212.479C127 212.529 126.26 214.789 125.2 217.569L125.07 217.919L124.79 217.669C124.79 217.669 124.7 217.599 124.66 217.559C122.34 215.539 120.85 213.519 120.96 213.439C121.08 213.339 122.72 215.179 125.01 217.169C125.05 217.209 125.1 217.249 125.14 217.279L124.73 217.379C125.79 214.609 126.75 212.429 126.88 212.479H126.87Z" fill="#263238"/>
<path d="M129.81 263.64C129.81 263.64 129.77 263.47 129.73 263.15C129.7 262.77 129.66 262.3 129.61 261.74C129.52 260.43 129.41 258.68 129.26 256.56C128.99 252.18 128.68 246.13 128.41 239.44C128.15 232.75 128 226.69 128 222.3C128 220.11 128.03 218.33 128.07 217.1C128.1 216.54 128.12 216.07 128.14 215.69C128.16 215.37 128.18 215.2 128.2 215.2C128.22 215.2 128.23 215.37 128.24 215.69C128.24 216.07 128.26 216.54 128.27 217.1C128.29 218.41 128.33 220.16 128.37 222.29C128.46 226.67 128.67 232.73 128.93 239.42C129.2 246.07 129.44 252.09 129.62 256.54C129.69 258.67 129.76 260.43 129.8 261.73C129.81 262.29 129.82 262.76 129.83 263.14C129.83 263.46 129.83 263.63 129.8 263.63L129.81 263.64Z" fill="#263238"/>
<path d="M71.2595 398.68L73.8495 423.1C73.8495 423.1 49.8995 433.93 49.9395 438.49L97.4695 435.17L94.9995 396.96L71.2695 398.68H71.2595Z" fill="#FF725E"/>
<path d="M88.3992 420.01C89.3392 420.2 90.0492 421.19 89.8992 422.13C89.7492 423.07 88.7492 423.8 87.8092 423.63C86.8692 423.46 85.9792 422.3 86.2392 421.38C86.4892 420.46 87.7092 419.67 88.5892 420.06" fill="#E0E0E0"/>
<path d="M97.5697 436.17L97.3297 432.47L51.6397 435.95C51.6397 435.95 49.5897 437.02 49.9297 438.49L97.5597 436.17H97.5697Z" fill="#E0E0E0"/>
<path d="M73.0596 422.91C73.0796 423.14 74.2496 423.17 75.4496 423.83C76.6596 424.47 77.3196 425.43 77.5296 425.32C77.7396 425.26 77.2996 423.9 75.8396 423.12C74.3896 422.33 72.9996 422.7 73.0696 422.91H73.0596Z" fill="#263238"/>
<path d="M68.2199 425.32C68.1799 425.55 69.2199 425.87 70.0699 426.8C70.9499 427.7 71.2299 428.75 71.4599 428.72C71.6799 428.74 71.7499 427.37 70.6599 426.24C69.5799 425.1 68.2099 425.1 68.2199 425.32Z" fill="#263238"/>
<path d="M65.8095 431.48C66.0195 431.51 66.2696 430.33 65.5796 429.1C64.8996 427.87 63.7695 427.44 63.6895 427.64C63.5695 427.84 64.3196 428.47 64.8696 429.49C65.4396 430.49 65.5695 431.47 65.8095 431.48Z" fill="#263238"/>
<path d="M73.0901 417.28C73.2001 417.48 74.2401 417.09 75.5601 417.09C76.8801 417.06 77.9301 417.43 78.0401 417.22C78.1601 417.04 77.1101 416.25 75.5501 416.28C74.0001 416.29 72.9601 417.11 73.0901 417.28Z" fill="#263238"/>
<path d="M62.7993 300.149L40.7893 311.029C40.7893 311.029 22.3293 292.309 18.0693 293.929L37.6393 337.369L72.6293 321.819L62.7993 300.149Z" fill="#FF725E"/>
<path d="M48.7198 323.61C48.8698 324.55 48.1898 325.56 47.2498 325.75C46.3098 325.94 45.2798 325.25 45.1198 324.31C44.9498 323.37 45.7398 322.13 46.6898 322.05C47.6398 321.97 48.8098 322.84 48.7398 323.79" fill="#E0E0E0"/>
<path d="M36.7396 337.81L40.1296 336.31L21.0396 294.66C21.0396 294.66 19.3296 293.11 18.0596 293.94L36.7296 337.82L36.7396 337.81Z" fill="#E0E0E0"/>
<path d="M40.6898 310.23C40.4798 310.33 40.8598 311.44 40.6498 312.79C40.4698 314.15 39.7998 315.1 39.9698 315.26C40.0998 315.44 41.2198 314.55 41.4498 312.91C41.6898 311.27 40.8598 310.1 40.6898 310.24V310.23Z" fill="#263238"/>
<path d="M36.76 306.52C36.53 306.56 36.59 307.65 36.01 308.77C35.47 309.91 34.58 310.53 34.69 310.74C34.75 310.95 36.05 310.54 36.74 309.13C37.44 307.72 36.96 306.44 36.76 306.52Z" fill="#263238"/>
<path d="M30.1399 306.39C30.1799 306.6 31.3699 306.42 32.2899 305.35C33.2099 304.29 33.2199 303.08 32.9999 303.07C32.7699 303.03 32.4399 303.95 31.6699 304.82C30.9299 305.7 30.0599 306.17 30.1299 306.39H30.1399Z" fill="#263238"/>
<path d="M45.9897 308.3C45.8397 308.48 46.5697 309.32 47.0297 310.55C47.5097 311.78 47.5297 312.89 47.7597 312.92C47.9697 312.97 48.3397 311.71 47.7797 310.26C47.2297 308.81 46.1097 308.12 45.9897 308.3Z" fill="#263238"/>
<path d="M73.5495 313.99C73.5495 313.99 65.6695 315.6 64.0595 324.06C62.4495 332.52 68.2795 417.72 68.2795 417.72L98.1795 415.32L96.3495 357.91L95.6095 346.34L98.1695 344.38L150.719 335.13L142.719 313.4L133.929 298.11L93.6695 308.15L73.5295 313.99H73.5495Z" fill="#263238"/>
<path d="M172.49 299.64C172.49 299.64 150.75 268.21 144.39 263.64C139.15 259.87 131.27 259.87 126.4 262.06C121.53 264.25 45.3496 302.01 45.3496 302.01L56.5196 329.97L128.98 304.86L139.78 321.81L149.83 335.13L178.07 335.35C179.41 335.35 185.47 323.37 185.47 323.37L172.48 299.63L172.49 299.64Z" fill="#263238"/>
<path d="M63.7795 330.63C63.7795 330.63 63.7695 330.53 63.7695 330.34C63.7695 330.12 63.7695 329.83 63.7695 329.48C63.7695 329.09 63.7895 328.62 63.7995 328.07C63.8495 327.52 63.9395 326.88 64.0195 326.16C64.0695 325.44 64.3195 324.66 64.4895 323.8C64.5695 323.37 64.7595 322.94 64.8995 322.48C65.0495 322.02 65.2095 321.55 65.4395 321.09C66.2595 319.21 67.6095 317.17 69.7095 315.61C70.7595 314.83 71.9795 314.18 73.3895 313.81C74.7795 313.57 76.2195 313.33 77.7195 313.08C80.7095 312.58 83.8995 312.05 87.2495 311.49C93.9695 310.38 101.35 309.15 109.1 307.87C116.11 306.72 122.82 305.62 128.94 304.62L129.1 304.59L129.19 304.72C135 313.79 139.72 321.68 143.69 326.84C145.62 329.42 147.15 331.48 148.23 332.93C148.74 333.61 149.15 334.15 149.44 334.55C149.56 334.72 149.66 334.86 149.75 334.97C149.82 335.07 149.85 335.12 149.84 335.12C149.84 335.12 149.79 335.08 149.71 334.99C149.62 334.88 149.51 334.75 149.37 334.59C149.06 334.21 148.63 333.68 148.1 333.02C147 331.64 145.4 329.61 143.45 327.01C139.41 321.89 134.61 314.01 128.78 304.97L129.02 305.08C122.9 306.09 116.19 307.2 109.18 308.36C101.43 309.63 94.0495 310.84 87.3295 311.94C83.9695 312.48 80.7795 313 77.7895 313.49C76.2995 313.73 74.8595 313.97 73.4795 314.19C72.1595 314.52 70.9495 315.15 69.9295 315.9C67.8695 317.4 66.5395 319.37 65.7095 321.2C65.4695 321.65 65.3095 322.11 65.1595 322.56C65.0195 323.01 64.8195 323.42 64.7395 323.85C64.5595 324.7 64.2995 325.46 64.2295 326.18C64.1295 326.89 64.0395 327.52 63.9595 328.07C63.9295 328.61 63.8995 329.08 63.8795 329.47C63.8495 329.82 63.8295 330.11 63.8195 330.33C63.7995 330.52 63.7895 330.62 63.7795 330.62V330.63Z" fill="#455A64"/>
<path d="M139.359 285.47C139.359 285.47 139.429 285.79 139.469 286.37C139.519 286.95 139.509 287.8 139.419 288.84C139.339 289.88 139.109 291.12 138.749 292.46C138.359 293.79 137.819 295.22 137.089 296.65C136.339 298.07 135.469 299.33 134.589 300.4C133.689 301.46 132.809 302.34 131.999 303.01C131.189 303.68 130.499 304.17 129.999 304.46C129.499 304.76 129.209 304.91 129.189 304.88C129.139 304.8 130.229 304.12 131.759 302.74C132.529 302.05 133.369 301.16 134.219 300.11C135.059 299.04 135.899 297.8 136.629 296.42C137.349 295.03 137.889 293.63 138.289 292.34C138.669 291.04 138.929 289.84 139.049 288.82C139.319 286.78 139.259 285.49 139.349 285.49L139.359 285.47Z" fill="#455A64"/>
<path d="M391.37 385.15L260.51 385.07C244.77 385.07 232.02 372.3 232.02 356.56L232.08 28.5C232.09 12.75 244.86 0 260.61 0L391.47 0.08C407.21 0.08 419.96 12.85 419.96 28.59L419.9 356.65C419.9 372.4 407.13 385.16 391.38 385.15H391.37Z" fill="#263238"/>
<path d="M391.33 11.6804H365.96C362.56 11.6604 359.8 14.5504 359.8 18.1004V22.7004C359.8 26.2604 357.04 29.1404 353.64 29.1404L304.19 29.1104C300.79 29.1104 298.03 26.2204 298.03 22.6704V18.0704C298.03 14.5104 295.27 11.6304 291.87 11.6304H282.95L260.74 11.6104C249.71 11.6104 240.77 20.5404 240.77 31.5704L240.71 351.78C240.71 362.8 249.64 371.74 260.66 371.75L391.25 371.83C402.28 371.83 411.22 362.9 411.22 351.87L411.28 31.6604C411.28 20.6404 402.35 11.7004 391.33 11.6904V11.6804Z" fill="white"/>
<path d="M411.28 31.6504C411.28 20.6304 402.35 11.6904 391.33 11.6804H365.96C362.56 11.6604 359.8 14.5504 359.8 18.1004V22.7004C359.8 26.2604 357.04 29.1404 353.64 29.1404L304.19 29.1104C300.79 29.1104 298.03 26.2204 298.03 22.6704V18.0704C298.03 14.5104 295.27 11.6304 291.87 11.6304H282.95L260.74 11.6104C249.71 11.6104 240.77 20.5404 240.77 31.5704L240.71 62.1903H411.29V31.6504H411.28Z" fill="#F5F5F5"/>
<path d="M397.399 42.9001C397.399 43.0001 394.339 43.1001 390.569 43.1301C386.799 43.1601 383.739 43.1101 383.739 43.0101C383.739 42.9101 386.799 42.8101 390.569 42.7801C394.339 42.7501 397.399 42.8001 397.399 42.9001Z" fill="#263238"/>
<path d="M397.43 46.3904C397.43 46.4904 394.37 46.5904 390.6 46.6204C386.83 46.6504 383.77 46.6004 383.77 46.5004C383.77 46.4004 386.83 46.3004 390.6 46.2704C394.37 46.2404 397.43 46.2904 397.43 46.3904Z" fill="#263238"/>
<path d="M397.459 49.8904C397.459 49.9904 394.399 50.0904 390.629 50.1204C386.859 50.1504 383.799 50.1004 383.799 50.0004C383.799 49.9004 386.859 49.8004 390.629 49.7704C394.399 49.7404 397.459 49.7904 397.459 49.8904Z" fill="#263238"/>
<path d="M278.579 284.7L279.269 283.25C280.239 284.12 281.889 284.76 283.559 284.76C285.809 284.76 286.769 283.89 286.769 282.75C286.769 279.57 278.889 281.58 278.889 276.75C278.889 274.74 280.449 273.03 283.869 273.03C285.389 273.03 286.969 273.44 288.049 274.18L287.439 275.67C286.309 274.95 285.019 274.61 283.869 274.61C281.659 274.61 280.709 275.54 280.709 276.67C280.709 279.85 288.589 277.86 288.589 282.64C288.589 284.63 286.989 286.34 283.549 286.34C281.559 286.34 279.609 285.67 278.569 284.71L278.579 284.7Z" fill="#263238"/>
<path d="M290.14 281.26C290.14 278.32 292.31 276.24 295.34 276.24C297.11 276.24 298.57 276.96 299.35 278.34L297.99 279.21C297.36 278.24 296.39 277.8 295.31 277.8C293.38 277.8 291.93 279.16 291.93 281.26C291.93 283.36 293.38 284.74 295.31 284.74C296.39 284.74 297.35 284.29 297.99 283.33L299.35 284.19C298.57 285.57 297.1 286.31 295.34 286.31C292.31 286.31 290.14 284.21 290.14 281.27V281.26Z" fill="#263238"/>
<path d="M309.459 280.24V286.19H307.769V284.89C307.179 285.78 306.079 286.3 304.539 286.3C302.309 286.3 300.899 285.11 300.899 283.4C300.899 281.82 301.919 280.52 304.859 280.52H307.689V280.17C307.689 278.66 306.819 277.79 305.049 277.79C303.879 277.79 302.689 278.2 301.929 278.85L301.189 277.51C302.209 276.69 303.679 276.25 305.259 276.25C307.949 276.25 309.479 277.55 309.479 280.25L309.459 280.24ZM307.679 283.18V281.8H304.929C303.159 281.8 302.659 282.49 302.659 283.32C302.659 284.31 303.479 284.92 304.829 284.92C306.179 284.92 307.229 284.31 307.669 283.17L307.679 283.18Z" fill="#263238"/>
<path d="M322.119 280.52V286.19H320.339V280.73C320.339 278.8 319.369 277.85 317.679 277.85C315.779 277.85 314.559 278.98 314.559 281.12V286.19H312.779V276.34H314.489V277.83C315.209 276.83 316.479 276.25 318.039 276.25C320.439 276.25 322.129 277.63 322.129 280.52H322.119Z" fill="#263238"/>
<path d="M334.779 280.52V286.19H332.999V280.73C332.999 278.8 332.029 277.85 330.339 277.85C328.439 277.85 327.219 278.98 327.219 281.12V286.19H325.439V276.34H327.149V277.83C327.869 276.83 329.139 276.25 330.699 276.25C333.099 276.25 334.789 277.63 334.789 280.52H334.779Z" fill="#263238"/>
<path d="M337.77 273.29C337.77 272.64 338.29 272.12 338.98 272.12C339.67 272.12 340.19 272.62 340.19 273.25C340.19 273.92 339.69 274.44 338.98 274.44C338.27 274.44 337.77 273.94 337.77 273.29ZM338.09 276.34H339.87V286.19H338.09V276.34Z" fill="#263238"/>
<path d="M352.619 280.52V286.19H350.839V280.73C350.839 278.8 349.869 277.85 348.179 277.85C346.279 277.85 345.059 278.98 345.059 281.12V286.19H343.279V276.34H344.989V277.83C345.709 276.83 346.979 276.25 348.539 276.25C350.939 276.25 352.629 277.63 352.629 280.52H352.619Z" fill="#263238"/>
<path d="M365.399 276.33V284.84C365.399 288.32 363.629 289.89 360.289 289.89C358.489 289.89 356.669 289.39 355.589 288.42L356.449 287.04C357.359 287.82 358.789 288.32 360.239 288.32C362.559 288.32 363.619 287.24 363.619 285.01V284.23C362.759 285.25 361.479 285.75 360.069 285.75C357.229 285.75 355.069 283.82 355.069 280.97C355.069 278.12 357.229 276.21 360.069 276.21C361.539 276.21 362.879 276.75 363.709 277.83V276.31H365.399V276.33ZM363.649 281C363.649 279.09 362.239 277.8 360.269 277.8C358.299 277.8 356.869 279.08 356.869 281C356.869 282.92 358.279 284.22 360.269 284.22C362.259 284.22 363.649 282.9 363.649 281Z" fill="#263238"/>
<path d="M367.97 285.01C367.97 284.27 368.55 283.75 369.23 283.75C369.91 283.75 370.46 284.27 370.46 285.01C370.46 285.75 369.9 286.29 369.23 286.29C368.56 286.29 367.97 285.75 367.97 285.01Z" fill="#263238"/>
<path d="M372.189 285.01C372.189 284.27 372.769 283.75 373.449 283.75C374.129 283.75 374.679 284.27 374.679 285.01C374.679 285.75 374.119 286.29 373.449 286.29C372.779 286.29 372.189 285.75 372.189 285.01Z" fill="#263238"/>
<path d="M376.399 285.01C376.399 284.27 376.979 283.75 377.659 283.75C378.339 283.75 378.889 284.27 378.889 285.01C378.889 285.75 378.329 286.29 377.659 286.29C376.989 286.29 376.399 285.75 376.399 285.01Z" fill="#263238"/>
<path d="M268.61 183.34V189.53H274.8V183.34V177.15H268.61V183.34Z" fill="#263238"/>
<path d="M274.8 146.19H268.61V152.38H274.8V146.19Z" fill="#263238"/>
<path d="M313.05 214.36H306.86V220.55H313.05V214.36Z" fill="#263238"/>
<path d="M274.8 158.57V164.76H268.61V170.95H274.8V177.15H280.99H287.18V183.34H293.37V177.15H299.56V170.95V164.76H293.37V170.95H287.18H280.99V164.76V158.57V152.38H274.8V158.57Z" fill="#263238"/>
<path d="M287.18 146.19H280.99V152.38H287.18H293.37V146.19H287.18Z" fill="#263238"/>
<path d="M315.04 195.961H318.37V189.771H315.04H311.71V195.961H315.04Z" fill="#263238"/>
<path d="M299.56 152.38H293.37V158.57H299.56V152.38Z" fill="#263238"/>
<path d="M342.9 177.15H336.71V183.34H342.9V177.15Z" fill="#263238"/>
<path d="M349.09 109.04H342.9V115.23H349.09V109.04Z" fill="#263238"/>
<path d="M311.941 158.57V152.38H318.141V146.19H311.941V140H305.751V146.19H299.561V152.38H305.751V158.57V164.76V170.95V177.15H311.941V170.95V164.76H318.141V158.57H311.941Z" fill="#263238"/>
<path d="M342.9 220.48H349.09V214.29H342.9H336.71V220.48H342.9Z" fill="#263238"/>
<path d="M336.711 109.04H330.521V115.23H336.711V109.04Z" fill="#263238"/>
<path d="M335.16 158.57V152.38H328.97V146.19H322.78V152.38V158.57H316.59V164.76H322.78H328.97V158.57H335.16Z" fill="#263238"/>
<path d="M370.1 146.19H363.91V152.38H370.1V146.19Z" fill="#263238"/>
<path d="M305.93 177.15H299.74V183.34H305.93V177.15Z" fill="#263238"/>
<path d="M330.521 140V133.81H336.711V127.62H342.901H349.091V121.42H342.901V115.23H336.711V121.42H330.521V127.62H324.331V133.81H318.141V140H324.331H330.521Z" fill="#263238"/>
<path d="M330.521 183.34V177.15H336.711V170.95H330.521H324.331V177.15H318.141V183.34H324.331H330.521Z" fill="#263238"/>
<path d="M349.09 208.1V201.91H342.9H336.71V195.72H330.52V201.91H324.33V208.1H318.14H311.94V214.29H318.14H324.33H330.52V208.1H336.71V214.29H342.9V208.1H349.09Z" fill="#263238"/>
<path d="M324.33 115.23V109.04H318.14H311.94V115.23H305.75V121.42H311.94H318.14V115.23H324.33Z" fill="#263238"/>
<path d="M324.331 121.42H318.141V127.61H324.331V121.42Z" fill="#263238"/>
<path d="M339.8 146.19H333.61V152.38V158.57V164.76H339.8H346V158.57H339.8V152.38H346V146.19H352.19V140H346V133.81H339.8V140V146.19Z" fill="#263238"/>
<path d="M318.13 127.62H311.94V133.81H318.13V127.62Z" fill="#263238"/>
<path d="M336.71 189.53V195.72H342.9H349.09V189.53H355.28H361.47V183.34H355.28H349.09H342.9V189.53H336.71Z" fill="#263238"/>
<path d="M370.1 164.76H363.91V170.95H370.1V164.76Z" fill="#263238"/>
<path d="M349.09 170.95H342.9V177.14H349.09V170.95Z" fill="#263238"/>
<path d="M364.57 152.38H358.38H352.19V158.57H358.38V164.76H364.57V158.57V152.38Z" fill="#263238"/>
<path d="M361.47 170.95H355.28V177.14H361.47V170.95Z" fill="#263238"/>
<path d="M293.37 208.22H311.95V183.33H287.06V189.53H280.99V195.72H287.06V201.91H280.99V208.1H287.06V208.22H287.18V214.3H280.99V226.68H287.18V220.49H293.37V208.22ZM307.18 188.1V203.58H291.7V188.1H307.18Z" fill="#263238"/>
<path d="M373.861 183.34H380.051V177.15H373.861H367.661H361.471V183.34H367.661H373.861Z" fill="#263238"/>
<path d="M373.86 158.57H380.05V152.38V146.19H373.86V152.38V158.57Z" fill="#263238"/>
<path d="M324.56 189.771H318.37V195.961V202.15H324.56V195.961V189.771Z" fill="#263238"/>
<path d="M386.24 183.34H380.05V189.53H386.24V183.34Z" fill="#263238"/>
<path d="M386.24 170.95V164.76H380.05V170.95V177.15H386.24V170.95Z" fill="#263238"/>
<path d="M274.8 214.29H268.61V220.48V226.67H274.8V220.48V214.29Z" fill="#263238"/>
<path d="M386.24 140V109.04H355.28V140H386.24ZM359.93 135.36V113.69H381.6V135.36H359.93Z" fill="#263238"/>
<path d="M376.95 118.33H364.57V130.71H376.95V118.33Z" fill="#263238"/>
<path d="M386.24 195.72H355.28V226.68H386.24V195.72ZM359.93 222.03V200.36H381.6V222.03H359.93Z" fill="#263238"/>
<path d="M376.95 205.01H364.57V217.39H376.95V205.01Z" fill="#263238"/>
<path d="M268.53 109.04V140H299.49V109.04H268.53ZM294.84 113.68V135.35H273.17V113.68H294.84Z" fill="#263238"/>
<path d="M290.191 118.33H277.811V130.71H290.191V118.33Z" fill="#263238"/>
<path d="M259.7 130.62V108.63C259.7 106.58 260.04 104.64 261.44 103.03C263 101.23 265.15 100.53 267.46 100.53H290.58C291.47 100.53 291.47 99.1504 290.58 99.1504H267.72C265.76 99.1504 263.89 99.4404 262.21 100.54C259.76 102.15 258.37 104.85 258.32 107.76C258.26 111.38 258.32 115 258.32 118.62V130.62C258.32 131.51 259.7 131.51 259.7 130.62Z" fill="#FF725E"/>
<path d="M288.56 237.131H266.57C264.52 237.131 262.58 236.791 260.97 235.391C259.17 233.831 258.47 231.681 258.47 229.361V206.241C258.47 205.351 257.09 205.351 257.09 206.241V229.101C257.09 231.061 257.38 232.931 258.48 234.611C260.09 237.061 262.79 238.451 265.7 238.501C269.32 238.561 272.94 238.501 276.56 238.501H288.56C289.45 238.501 289.45 237.121 288.56 237.121V237.131Z" fill="#FF725E"/>
<path d="M394.4 206.02V228.01C394.4 230.06 394.06 232 392.66 233.61C391.1 235.41 388.95 236.11 386.63 236.11H363.51C362.62 236.11 362.62 237.49 363.51 237.49H386.37C388.33 237.49 390.2 237.2 391.88 236.1C394.33 234.49 395.72 231.79 395.77 228.88C395.83 225.26 395.77 221.64 395.77 218.02V206.02C395.77 205.13 394.39 205.13 394.39 206.02H394.4Z" fill="#FF725E"/>
<path d="M363.91 100.53H385.9C387.95 100.53 389.89 100.87 391.5 102.27C393.3 103.83 394 105.98 394 108.3V131.42C394 132.31 395.38 132.31 395.38 131.42V108.56C395.38 106.6 395.09 104.73 393.99 103.05C392.38 100.6 389.68 99.2105 386.77 99.1605C383.15 99.1005 379.53 99.1605 375.91 99.1605H363.91C363.02 99.1605 363.02 100.54 363.91 100.54V100.53Z" fill="#FF725E"/>
<path d="M272.18 302.78H376.48C385.65 302.78 393.1 310.23 393.1 319.4V322.93C393.1 332.1 385.65 339.55 376.48 339.55H272.18C263.01 339.55 255.56 332.1 255.56 322.93V319.4C255.56 310.23 263.01 302.78 272.18 302.78Z" fill="#EBEBEB"/>
<path d="M282.11 317.84L279.8 324.02H278.73L276.95 319.33L275.14 324.02H274.07L271.77 317.84H272.83L274.62 322.76L276.49 317.84H277.43L279.26 322.78L281.1 317.84H282.1H282.11Z" fill="#263238"/>
<path d="M292.499 317.84L290.189 324.02H289.119L287.339 319.33L285.529 324.02H284.459L282.159 317.84H283.219L285.009 322.76L286.879 317.84H287.819L289.649 322.78L291.489 317.84H292.489H292.499Z" fill="#263238"/>
<path d="M302.9 317.84L300.59 324.02H299.52L297.74 319.33L295.93 324.02H294.86L292.56 317.84H293.62L295.41 322.76L297.28 317.84H298.22L300.05 322.78L301.89 317.84H302.89H302.9Z" fill="#263238"/>
<path d="M303.119 323.29C303.119 322.82 303.479 322.5 303.909 322.5C304.339 322.5 304.679 322.83 304.679 323.29C304.679 323.75 304.329 324.09 303.909 324.09C303.489 324.09 303.119 323.75 303.119 323.29Z" fill="#263238"/>
<path d="M305.51 323.37L305.98 322.48C306.5 322.85 307.34 323.12 308.15 323.12C309.19 323.12 309.62 322.8 309.62 322.28C309.62 320.89 305.71 322.09 305.71 319.63C305.71 318.52 306.7 317.78 308.29 317.78C309.09 317.78 310 317.99 310.54 318.34L310.06 319.23C309.5 318.87 308.88 318.74 308.28 318.74C307.3 318.74 306.82 319.1 306.82 319.59C306.82 321.05 310.74 319.86 310.74 322.26C310.74 323.38 309.71 324.09 308.07 324.09C307.04 324.09 306.03 323.77 305.52 323.37H305.51Z" fill="#263238"/>
<path d="M311.939 315.93C311.939 315.52 312.269 315.2 312.699 315.2C313.129 315.2 313.459 315.52 313.459 315.91C313.459 316.33 313.149 316.66 312.699 316.66C312.249 316.66 311.939 316.34 311.939 315.94V315.93ZM312.139 317.84H313.259V324.02H312.139V317.84Z" fill="#263238"/>
<path d="M318.87 323.66C318.53 323.95 318.02 324.09 317.52 324.09C316.27 324.09 315.56 323.4 315.56 322.15V318.76H314.51V317.84H315.56V316.49H316.68V317.84H318.45V318.76H316.68V322.11C316.68 322.77 317.03 323.15 317.65 323.15C317.98 323.15 318.29 323.04 318.52 322.86L318.87 323.66Z" fill="#263238"/>
<path d="M325.569 321.31H320.559C320.699 322.39 321.569 323.12 322.799 323.12C323.519 323.12 324.129 322.87 324.579 322.37L325.199 323.09C324.639 323.74 323.789 324.09 322.759 324.09C320.769 324.09 319.439 322.77 319.439 320.93C319.439 319.09 320.759 317.78 322.539 317.78C324.319 317.78 325.589 319.06 325.589 320.96C325.589 321.05 325.579 321.19 325.569 321.3V321.31ZM320.559 320.51H324.519C324.399 319.47 323.619 318.74 322.539 318.74C321.459 318.74 320.669 319.46 320.559 320.51Z" fill="#263238"/>
<path d="M336.379 317.84L334.069 324.02H332.999L331.219 319.33L329.409 324.02H328.339L326.039 317.84H327.099L328.889 322.76L330.759 317.84H331.699L333.529 322.78L335.369 317.84H336.369H336.379Z" fill="#263238"/>
<path d="M342.9 321.31H337.89C338.03 322.39 338.9 323.12 340.13 323.12C340.85 323.12 341.46 322.87 341.91 322.37L342.53 323.09C341.97 323.74 341.12 324.09 340.09 324.09C338.1 324.09 336.77 322.77 336.77 320.93C336.77 319.09 338.09 317.78 339.87 317.78C341.65 317.78 342.92 319.06 342.92 320.96C342.92 321.05 342.91 321.19 342.9 321.3V321.31ZM337.89 320.51H341.85C341.73 319.47 340.95 318.74 339.87 318.74C338.79 318.74 338 319.46 337.89 320.51Z" fill="#263238"/>
<path d="M350.879 320.93C350.879 322.82 349.559 324.09 347.759 324.09C346.849 324.09 346.059 323.74 345.559 323.04V324.02H344.489V315.37H345.609V318.77C346.119 318.11 346.889 317.78 347.769 317.78C349.579 317.78 350.889 319.04 350.889 320.93H350.879ZM349.749 320.93C349.749 319.61 348.849 318.76 347.659 318.76C346.469 318.76 345.579 319.61 345.579 320.93C345.579 322.25 346.479 323.11 347.659 323.11C348.839 323.11 349.749 322.25 349.749 320.93Z" fill="#263238"/>
<path d="M351.77 323.29C351.77 322.82 352.13 322.5 352.56 322.5C352.99 322.5 353.33 322.83 353.33 323.29C353.33 323.75 352.98 324.09 352.56 324.09C352.14 324.09 351.77 323.75 351.77 323.29Z" fill="#263238"/>
<path d="M354.229 320.93C354.229 319.09 355.589 317.78 357.489 317.78C358.599 317.78 359.519 318.23 360.009 319.1L359.159 319.65C358.759 319.04 358.159 318.76 357.479 318.76C356.269 318.76 355.359 319.61 355.359 320.93C355.359 322.25 356.269 323.11 357.479 323.11C358.159 323.11 358.759 322.83 359.159 322.22L360.009 322.76C359.519 323.62 358.599 324.09 357.489 324.09C355.589 324.09 354.229 322.77 354.229 320.93Z" fill="#263238"/>
<path d="M360.8 320.93C360.8 319.09 362.16 317.78 364.02 317.78C365.88 317.78 367.23 319.09 367.23 320.93C367.23 322.77 365.88 324.09 364.02 324.09C362.16 324.09 360.8 322.77 360.8 320.93ZM366.09 320.93C366.09 319.61 365.2 318.76 364.01 318.76C362.82 318.76 361.92 319.61 361.92 320.93C361.92 322.25 362.82 323.11 364.01 323.11C365.2 323.11 366.09 322.25 366.09 320.93Z" fill="#263238"/>
<path d="M379.039 320.471V324.031H377.919V320.601C377.919 319.391 377.339 318.791 376.319 318.791C375.199 318.791 374.469 319.501 374.469 320.841V324.021H373.349V320.591C373.349 319.381 372.769 318.781 371.749 318.781C370.629 318.781 369.899 319.491 369.899 320.831V324.011H368.779V317.831H369.849V318.751C370.289 318.121 371.049 317.771 371.979 317.771C372.909 317.771 373.719 318.141 374.129 318.911C374.599 318.211 375.459 317.771 376.509 317.771C378.009 317.771 379.039 318.631 379.039 320.451V320.471Z" fill="#263238"/>
<path d="M378.66 328.08C378.66 328.22 355.07 328.34 325.99 328.34C296.91 328.34 273.31 328.22 273.31 328.08C273.31 327.94 296.89 327.82 325.99 327.82C355.09 327.82 378.66 327.94 378.66 328.08Z" fill="#263238"/>
</g>
<defs>
<clipPath id="clip0_39_401">
<rect width="457.88" height="439.78" fill="white"/>
</clipPath>
</defs>
</svg>
