<svg width="314" height="357" viewBox="0 0 314 357" fill="none" xmlns="http://www.w3.org/2000/svg">
<path d="M14.8861 22.9033C40.596 -21.6764 117.656 15.4541 117.656 15.4541C117.656 15.4541 150.446 114.668 165.926 121.037C181.406 127.407 154.347 30.8333 154.347 30.8333C186.158 36.2782 255.128 95.9181 255.128 95.9181C255.128 95.9181 224.188 192.808 240.726 195.165C257.264 197.523 263.749 107.941 263.749 107.941C291.377 125.143 310.129 167.871 310.129 167.871C330.058 234.561 243.91 256.217 243.91 256.217C243.91 256.217 233.911 290.032 244.597 334.855C244.597 334.855 247.435 343.366 249.01 356.949L240.827 354.721C240.743 352.34 240.566 350.012 240.287 347.752C240.292 347.733 240.288 347.727 240.278 347.71C240.276 347.679 240.271 347.643 240.269 347.613C240.04 346.193 239.713 344.172 239.287 341.698C239.287 341.698 239.287 341.698 239.284 341.692C239.284 341.692 239.281 341.686 239.277 341.68C238.075 336.096 237.342 332.013 236.962 329.105C236.959 329.099 236.961 329.09 236.96 329.075C233.534 311.639 228.039 288.642 221.949 282.471C221.949 282.471 223.189 281.441 224.694 279.185C223.82 280.23 222.904 281.324 221.949 282.471C200.007 308.729 128.653 294.654 91.7524 276.003C54.8516 257.351 74.7707 250.953 100.508 238.782C126.245 226.611 169.016 243.323 183.868 239.851C198.726 236.375 181.569 224.179 155.027 219.093C128.486 214.007 108.601 236.531 65.5217 229.088C22.4423 221.646 11.3402 133.721 11.3402 133.721C37.9718 150.653 94.2224 148.79 98.8723 139.31C103.522 129.83 26.2248 109.837 15.0117 103.559C3.79863 97.2806 -10.8563 67.4939 14.8536 22.9143L14.8861 22.9033Z" fill="#AFCDFB"/>
</svg>
