<svg width="38" height="30" viewBox="0 0 38 30" fill="none" xmlns="http://www.w3.org/2000/svg">
<path fill-rule="evenodd" clip-rule="evenodd" d="M22.5563 3.17596e-07H15.3385C12.1298 -1.84324e-05 9.57496 -3.72157e-05 7.57243 0.261357C5.50618 0.531094 3.81299 1.10201 2.47447 2.40161C1.13564 3.70153 0.547192 5.34641 0.269248 7.35366C-4.77433e-05 9.29842 -2.63293e-05 11.7794 5.34998e-07 14.8943V15.1058C-2.63293e-05 18.2207 -4.77716e-05 20.7015 0.269248 22.6464C0.547192 24.6536 1.13564 26.2986 2.47447 27.5983C3.81299 28.8981 5.50618 29.469 7.57241 29.7386C9.57488 30 12.1298 30 15.3383 30H22.5567C25.7652 30 28.3199 30 30.3222 29.7386C32.3886 29.469 34.0818 28.8981 35.4202 27.5983C36.759 26.2986 37.3475 24.6536 37.6255 22.6464C37.8947 20.7015 37.8947 18.2207 37.8947 15.1058V14.8944C37.8947 11.7794 37.8947 9.29842 37.6255 7.35366C37.3475 5.34641 36.759 3.70153 35.4202 2.40161C34.0818 1.10201 32.3886 0.531094 30.3222 0.261357C28.3197 -3.72157e-05 25.765 -1.84324e-05 22.5563 3.17596e-07ZM7.95676 3.04573C9.74482 2.81233 12.1056 2.80935 15.4468 2.80935H22.4479C25.7893 2.80935 28.1499 2.81233 29.938 3.04573C31.6847 3.27375 32.667 3.69827 33.3792 4.38971C34.0911 5.08084 34.5278 6.03373 34.7626 7.72858C35.0028 9.46414 35.0058 11.7557 35.0058 15C35.0058 18.2443 35.0028 20.5359 34.7626 22.2714C34.5278 23.9663 34.0911 24.9191 33.3792 25.6103C32.667 26.3018 31.6847 26.7263 29.938 26.9543C28.1499 27.1877 25.7893 27.1907 22.4479 27.1907H15.4468C12.1056 27.1907 9.74482 27.1877 7.95676 26.9543C6.21006 26.7263 5.22773 26.3018 4.51559 25.6103C3.80376 24.9191 3.36695 23.9663 3.13227 22.2714C2.89194 20.5359 2.88887 18.2443 2.88887 15C2.88887 11.7557 2.89194 9.46414 3.13227 7.72858C3.36695 6.03373 3.80376 5.08084 4.51559 4.38971C5.22773 3.69827 6.21006 3.27375 7.95676 3.04573ZM9.47368 7.50366C9.47368 8.5392 8.62537 9.37866 7.57895 9.37866C6.53252 9.37866 5.68421 8.5392 5.68421 7.50366C5.68421 6.46813 6.53252 5.62866 7.57895 5.62866C8.62537 5.62866 9.47368 6.46813 9.47368 7.50366ZM12.8153 6.09741C12.0162 6.09741 11.3684 6.72701 11.3684 7.50366C11.3684 8.28032 12.0162 8.90991 12.8153 8.90991H31.1427C31.9417 8.90991 32.5895 8.28032 32.5895 7.50366C32.5895 6.72701 31.9417 6.09741 31.1427 6.09741H12.8153Z" fill="#201F29"/>
</svg>
