<svg width="31" height="31" viewBox="0 0 31 31" fill="none" xmlns="http://www.w3.org/2000/svg">
<path fill-rule="evenodd" clip-rule="evenodd" d="M3.89406 2.77283C3.94216 2.77879 3.97895 2.7849 4.00642 2.79034C4.0147 2.81511 4.02457 2.84799 4.03547 2.89075C4.10181 3.15096 4.14884 3.52408 4.2286 4.1963L5.43427 14.3577C5.57629 15.5549 5.69802 16.5814 5.9063 17.3982C6.12936 18.2731 6.49044 19.0793 7.22907 19.7156C7.96671 20.351 8.83433 20.6045 9.75618 20.7183C10.6188 20.8249 11.6872 20.8249 12.9362 20.8249H22.7414C23.9313 20.8249 24.9515 20.8249 25.7794 20.7252C26.6651 20.6184 27.5002 20.3813 28.2244 19.7888C28.9495 19.1957 29.3304 18.4369 29.5862 17.6075C29.8245 16.834 29.9925 15.861 30.1879 14.7285L30.4802 13.0352C30.7464 11.4922 30.9712 10.1904 30.9974 9.14461C31.0251 8.03711 30.8417 6.96699 30.0539 6.06902C29.2677 5.17269 28.2091 4.82401 27.0776 4.66894C26.0069 4.52216 24.6419 4.52221 23.0204 4.52224L7.10216 4.52226L7.01751 3.8088C6.94964 3.23611 6.8843 2.68472 6.7691 2.23286C6.63926 1.72362 6.40805 1.17191 5.89142 0.726885C5.37575 0.282707 4.78474 0.124917 4.24963 0.0587666C3.77318 -0.0001333 3.19978 -6.26211e-05 2.60203 4.54546e-06L1.40812 2.17911e-05C0.638306 2.17911e-05 0 0.604745 0 1.368C0 2.13125 0.638306 2.73597 1.40812 2.73597H2.52588C3.22584 2.73597 3.61692 2.73857 3.89406 2.77283ZM8.22162 13.957L7.4268 7.25821H22.915C24.6686 7.25821 25.8335 7.26143 26.6842 7.37805C27.4966 7.4894 27.7613 7.67356 27.9105 7.84368C28.0584 8.01218 28.2017 8.29029 28.1819 9.07814C28.1612 9.90561 27.9735 11.0137 27.685 12.6849L27.4248 14.1923C27.2112 15.4305 27.07 16.2328 26.8883 16.8225C26.718 17.3746 26.5587 17.5747 26.4102 17.6962C26.2611 17.8183 26.0277 17.9383 25.4324 18.0101C24.7986 18.0866 23.954 18.089 22.6548 18.089H13.0259C11.6637 18.089 10.7757 18.0864 10.1118 18.0043C9.48702 17.9271 9.24804 17.7981 9.09751 17.6684C8.94793 17.5396 8.78964 17.3276 8.63993 16.7403C8.48036 16.1145 8.37676 15.2646 8.22162 13.957ZM10.4125 23.7418C8.40817 23.7418 6.78336 25.3666 6.78336 27.3709C6.78336 29.3752 8.40817 31 10.4125 31C12.4168 31 14.0415 29.3752 14.0415 27.3709C14.0415 25.3666 12.4168 23.7418 10.4125 23.7418ZM9.51931 27.3709C9.51931 26.8777 9.91919 26.4778 10.4125 26.4778C10.9057 26.4778 11.3056 26.8777 11.3056 27.3709C11.3056 27.8641 10.9057 28.264 10.4125 28.264C9.91919 28.264 9.51931 27.8641 9.51931 27.3709ZM23.9792 23.7418C21.9748 23.7418 20.3501 25.3666 20.3501 27.3709C20.3501 29.3752 21.9748 31 23.9792 31C25.9835 31 27.6082 29.3752 27.6082 27.3709C27.6082 25.3666 25.9835 23.7418 23.9792 23.7418ZM23.086 27.3709C23.086 26.8777 23.4859 26.4778 23.9792 26.4778C24.4724 26.4778 24.8723 26.8777 24.8723 27.3709C24.8723 27.8641 24.4724 28.264 23.9792 28.264C23.4859 28.264 23.086 27.8641 23.086 27.3709Z" fill="black"/>
</svg>
