<svg width="24" height="30" viewBox="0 0 24 30" fill="none" xmlns="http://www.w3.org/2000/svg">
<path fill-rule="evenodd" clip-rule="evenodd" d="M15.447 4.84977H8.55303C7.95858 4.84976 7.43895 4.84973 7.01096 4.88927C6.55601 4.93129 6.09572 5.02512 5.65944 5.28183C5.17853 5.56482 4.77939 5.97171 4.50198 6.46144C4.25045 6.90549 4.15853 7.37391 4.11732 7.83712C4.07856 8.2731 4.07858 8.80251 4.07861 9.40854V9.50628C4.07858 10.1123 4.07856 10.6417 4.11732 11.0777C4.15853 11.5409 4.25045 12.0093 4.50198 12.4534C4.77939 12.9431 5.17853 13.35 5.65944 13.633C6.09572 13.8897 6.55601 13.9835 7.01096 14.0255C7.43894 14.0651 7.95858 14.0651 8.55303 14.065H15.447C16.0415 14.0651 16.5611 14.0651 16.989 14.0255C17.444 13.9835 17.9043 13.8897 18.3405 13.633C18.8216 13.35 19.2206 12.9431 19.4981 12.4534C19.7496 12.0093 19.8416 11.5409 19.8827 11.0777C19.9215 10.6417 19.9215 10.1123 19.9214 9.50627V9.40854C19.9215 8.80251 19.9215 8.2731 19.8827 7.83712C19.8416 7.37391 19.7496 6.90549 19.4981 6.46144C19.2206 5.97171 18.8216 5.56482 18.3405 5.28183C17.9043 5.02512 17.444 4.93129 16.989 4.88927C16.5611 4.84973 16.0415 4.84976 15.447 4.84977ZM7.21415 7.16691C7.52835 7.13788 7.94505 7.13679 8.60116 7.13679H15.3988C16.0549 7.13679 16.4717 7.13788 16.7859 7.16691C17.0847 7.19451 17.1786 7.23995 17.2155 7.26165C17.3545 7.34352 17.4704 7.46139 17.5509 7.6036C17.5725 7.64181 17.6172 7.73826 17.6444 8.04324C17.6728 8.36379 17.6739 8.78878 17.6739 9.45741C17.6739 10.126 17.6728 10.551 17.6444 10.8716C17.6172 11.1765 17.5725 11.273 17.5509 11.3112C17.4704 11.4534 17.3545 11.5713 17.2155 11.6532C17.1786 11.6749 17.0847 11.7203 16.7859 11.7479C16.4717 11.7769 16.0549 11.778 15.3988 11.778H8.60116C7.94505 11.778 7.52835 11.7769 7.21415 11.7479C6.91536 11.7203 6.82143 11.6749 6.78453 11.6532C6.64542 11.5713 6.52968 11.4534 6.44913 11.3112C6.42748 11.273 6.38279 11.1765 6.35565 10.8716C6.32715 10.551 6.32609 10.126 6.32609 9.45741C6.32609 8.78878 6.32715 8.36379 6.35565 8.04324C6.38279 7.73826 6.42748 7.64181 6.44913 7.6036C6.52968 7.46139 6.64542 7.34352 6.78453 7.26165C6.82143 7.23995 6.91536 7.19451 7.21415 7.16691ZM6.84174 16.2814H6.28199C6.03239 16.2814 5.83428 16.2815 5.67915 16.3026C5.51919 16.3245 5.3895 16.3708 5.28738 16.475C5.1855 16.5788 5.14044 16.7101 5.11905 16.8723C5.09825 17.0301 5.09825 17.2317 5.09825 17.4864V18.0561C5.09825 18.311 5.09825 18.5126 5.11905 18.6702C5.14044 18.8325 5.1855 18.9639 5.28738 19.0677C5.3895 19.1718 5.51919 19.218 5.67915 19.2399C5.83428 19.2612 6.03239 19.2612 6.28199 19.2612H6.84174C7.09136 19.2612 7.28946 19.2612 7.44459 19.2399C7.60455 19.218 7.73422 19.1718 7.83636 19.0677C7.93824 18.9639 7.98328 18.8325 8.00469 18.6702C8.0255 18.5126 8.02549 18.311 8.02549 18.0561V17.4864C8.02549 17.2317 8.0255 17.0301 8.00469 16.8723C7.98328 16.7101 7.93824 16.5788 7.83636 16.475C7.73422 16.3708 7.60455 16.3245 7.44459 16.3026C7.28946 16.2815 7.09136 16.2814 6.84174 16.2814ZM12.8827 16.3026C12.7276 16.2815 12.5295 16.2814 12.2799 16.2814H11.7201C11.4705 16.2814 11.2724 16.2815 11.1173 16.3026C10.9573 16.3245 10.8276 16.3708 10.7255 16.475C10.6236 16.5788 10.5786 16.7101 10.5572 16.8723C10.5364 17.0301 10.5364 17.2317 10.5364 17.4864V18.0561C10.5364 18.311 10.5364 18.5126 10.5572 18.6702C10.5786 18.8325 10.6236 18.9639 10.7255 19.0677C10.8276 19.1718 10.9573 19.218 11.1173 19.2399C11.2724 19.2612 11.4705 19.2612 11.7201 19.2612H12.2799C12.5295 19.2612 12.7276 19.2612 12.8827 19.2399C13.0427 19.218 13.1724 19.1718 13.2745 19.0677C13.3764 18.9639 13.4214 18.8325 13.4429 18.6702C13.4635 18.5126 13.4636 18.311 13.4636 18.0561V17.4864C13.4636 17.2317 13.4635 17.0301 13.4429 16.8723C13.4214 16.7101 13.3764 16.5788 13.2745 16.475C13.1724 16.3708 13.0427 16.3245 12.8827 16.3026ZM17.718 16.2814H17.1582C16.9086 16.2814 16.7106 16.2815 16.5553 16.3026C16.3954 16.3245 16.2657 16.3708 16.1637 16.475C16.0617 16.5788 16.0167 16.7101 15.9952 16.8723C15.9745 17.0301 15.9746 17.2317 15.9746 17.4864V18.0561C15.9746 18.311 15.9745 18.5126 15.9952 18.6702C16.0167 18.8325 16.0617 18.9639 16.1637 19.0677C16.2657 19.1718 16.3954 19.218 16.5553 19.2399C16.7106 19.2612 16.9086 19.2612 17.1582 19.2612H17.718C17.9676 19.2612 18.1657 19.2612 18.3209 19.2399C18.4807 19.218 18.6105 19.1718 18.7127 19.0677C18.8145 18.9639 18.8595 18.8325 18.881 18.6702C18.9018 18.5126 18.9018 18.311 18.9018 18.0563V17.4865C18.9018 17.2317 18.9018 17.0301 18.881 16.8723C18.8595 16.7101 18.8145 16.5788 18.7127 16.475C18.6105 16.3708 18.4807 16.3245 18.3209 16.3026C18.1657 16.2815 17.9676 16.2814 17.718 16.2814ZM6.84174 21.8239H6.282C6.03239 21.8239 5.83428 21.8239 5.67915 21.8453C5.51919 21.8672 5.3895 21.9133 5.28738 22.0175C5.1855 22.1214 5.14044 22.2528 5.11905 22.415C5.09825 22.5728 5.09825 22.7744 5.09825 23.0291V23.5988C5.09825 23.8535 5.09825 24.055 5.11905 24.2128C5.14044 24.375 5.1855 24.5064 5.28738 24.6104C5.3895 24.7145 5.51919 24.7607 5.67915 24.7826C5.8343 24.8039 6.03244 24.8039 6.28209 24.8039H6.84165C7.09131 24.8039 7.28944 24.8039 7.44459 24.7826C7.60455 24.7607 7.73422 24.7145 7.83636 24.6104C7.93824 24.5064 7.98328 24.375 8.00469 24.2128C8.0255 24.055 8.02549 23.8535 8.02549 23.5988V23.0291C8.02549 22.7744 8.0255 22.5728 8.00469 22.415C7.98328 22.2528 7.93824 22.1214 7.83636 22.0175C7.73422 21.9133 7.60455 21.8672 7.44459 21.8453C7.28946 21.8239 7.09136 21.8239 6.84174 21.8239ZM12.8827 21.8453C12.7276 21.8239 12.5295 21.8239 12.2799 21.8239H11.7201C11.4705 21.8239 11.2724 21.8239 11.1173 21.8453C10.9573 21.8672 10.8276 21.9133 10.7255 22.0175C10.6236 22.1214 10.5786 22.2528 10.5572 22.415C10.5364 22.5728 10.5364 22.7744 10.5364 23.0291V23.5988C10.5364 23.8535 10.5364 24.055 10.5572 24.2128C10.5786 24.375 10.6236 24.5064 10.7255 24.6104C10.8276 24.7145 10.9573 24.7607 11.1173 24.7826C11.2724 24.8039 11.4706 24.8039 11.7202 24.8039H12.2797C12.5295 24.8039 12.7275 24.8039 12.8827 24.7826C13.0427 24.7607 13.1724 24.7145 13.2745 24.6104C13.3764 24.5064 13.4214 24.375 13.4429 24.2128C13.4635 24.055 13.4636 23.8535 13.4636 23.5988V23.0291C13.4636 22.7744 13.4635 22.5728 13.4429 22.415C13.4214 22.2528 13.3764 22.1214 13.2745 22.0175C13.1724 21.9133 13.0427 21.8672 12.8827 21.8453ZM17.718 21.8239H17.1582C16.9086 21.8239 16.7106 21.8239 16.5553 21.8453C16.3954 21.8672 16.2657 21.9133 16.1637 22.0175C16.0617 22.1214 16.0167 22.2528 15.9952 22.415C15.9745 22.5728 15.9746 22.7744 15.9746 23.0291V23.5988C15.9746 23.8535 15.9745 24.055 15.9952 24.2128C16.0167 24.375 16.0617 24.5064 16.1637 24.6104C16.2657 24.7145 16.3954 24.7607 16.5553 24.7826C16.7106 24.8039 16.9088 24.8039 17.1583 24.8039H17.7178C17.9676 24.8039 18.1657 24.8039 18.3209 24.7826C18.4807 24.7607 18.6105 24.7145 18.7127 24.6104C18.8145 24.5064 18.8595 24.375 18.881 24.2128C18.9018 24.055 18.9018 23.8535 18.9018 23.5988V23.0291C18.9018 22.7744 18.9018 22.5728 18.881 22.415C18.8595 22.2528 18.8145 22.1214 18.7127 22.0175C18.6105 21.9133 18.4807 21.8672 18.3209 21.8453C18.1657 21.8239 17.9676 21.8239 17.718 21.8239ZM12.0654 2.1456e-07H11.9347C9.76082 -1.17301e-05 8.0401 -2.13683e-05 6.669 0.147279C5.26413 0.298207 4.09749 0.61403 3.08732 1.33495C2.39534 1.82878 1.79357 2.44215 1.30916 3.14724C0.60219 4.1763 0.2925 5.36458 0.14448 6.79587C-1.48304e-05 8.19303 -1.46989e-05 9.94656 3.01093e-07 12.1624V17.8375C-1.46989e-05 20.0535 -1.48304e-05 21.807 0.14448 23.2041C0.2925 24.6354 0.60219 25.8237 1.30916 26.8527C1.79357 27.5578 2.39534 28.1712 3.08732 28.665C4.09749 29.3859 5.26413 29.7018 6.669 29.8527C8.04014 30 9.76087 30 11.9348 30H12.0653C14.2392 30 15.9599 30 17.331 29.8527C18.7359 29.7018 19.9025 29.3859 20.9127 28.665C21.6047 28.1712 22.2064 27.5578 22.6908 26.8527C23.3977 25.8237 23.7075 24.6354 23.8555 23.2041C24 21.807 24 20.0534 24 17.8375V12.1625C24 9.94659 24 8.19304 23.8555 6.79587C23.7075 5.36458 23.3977 4.1763 22.6908 3.14724C22.2064 2.44215 21.6047 1.82878 20.9127 1.33495C19.9025 0.61403 18.7359 0.298207 17.331 0.147279C15.9599 -2.13571e-05 14.2392 -1.17301e-05 12.0654 2.1456e-07ZM6.90498 2.42166C8.14434 2.2885 9.74652 2.28702 12 2.28702C14.2535 2.28702 15.8556 2.2885 17.0951 2.42166C18.3142 2.55264 19.0522 2.80065 19.6222 3.20739C20.0994 3.54795 20.5146 3.97107 20.8488 4.45764C21.2483 5.03904 21.4919 5.79196 21.6204 7.03524C21.7511 8.29875 21.7525 9.93205 21.7525 12.2287V17.7712C21.7525 20.0679 21.7511 21.7013 21.6204 22.9647C21.4919 24.208 21.2483 24.9609 20.8488 25.5423C20.5146 26.0289 20.0994 26.452 19.6222 26.7925C19.0522 27.1994 18.3142 27.4473 17.0951 27.5784C15.8556 27.7114 14.2535 27.7129 12 27.7129C9.74652 27.7129 8.14434 27.7114 6.90498 27.5784C5.68571 27.4473 4.94774 27.1994 4.3778 26.7925C3.90059 26.452 3.48542 26.0289 3.15114 25.5423C2.75171 24.9609 2.50818 24.208 2.37962 22.9647C2.24894 21.7013 2.24748 20.0679 2.24748 17.7712V12.2287C2.24748 9.93205 2.24894 8.29875 2.37962 7.03524C2.50818 5.79196 2.75171 5.03904 3.15114 4.45764C3.48542 3.97107 3.90059 3.54795 4.3778 3.20739C4.94774 2.80065 5.68571 2.55264 6.90498 2.42166Z" fill="#201F29"/>
</svg>
