<svg width="20" height="25" viewBox="0 0 20 25" fill="none" xmlns="http://www.w3.org/2000/svg">
<path fill-rule="evenodd" clip-rule="evenodd" d="M3.91835 3.01441C2.35494 3.80975 1.71429 4.74715 1.71429 5.52325C1.71429 6.29936 2.35494 7.23676 3.91835 8.0321C5.4305 8.80136 7.57949 9.30233 10 9.30233C12.4205 9.30233 14.5695 8.80136 16.0816 8.0321C17.6451 7.23676 18.2857 6.29936 18.2857 5.52325C18.2857 4.74715 17.6451 3.80975 16.0816 3.01441C14.5695 2.24515 12.4205 1.74419 10 1.74419C7.57949 1.74419 5.4305 2.24515 3.91835 3.01441ZM18.2857 8.67118C17.8551 9.0206 17.3667 9.32842 16.8482 9.59215C15.0514 10.5063 12.629 11.0465 10 11.0465C7.37105 11.0465 4.94861 10.5063 3.1517 9.59215C2.6333 9.32842 2.14485 9.0206 1.71429 8.67118V12.5C1.71429 13.2761 2.35494 14.2135 3.91835 15.0089C5.4305 15.7781 7.57949 16.2791 10 16.2791C12.4205 16.2791 14.5695 15.7781 16.0816 15.0089C17.6451 14.2135 18.2857 13.2761 18.2857 12.5V8.67118ZM20 5.52325C20 3.73059 18.594 2.34241 16.8482 1.45436C15.0514 0.540233 12.629 0 10 0C7.37105 0 4.94861 0.540233 3.1517 1.45436C1.40605 2.34241 0 3.73059 0 5.52325V19.4767C0 21.2694 1.40605 22.6576 3.1517 23.5456C4.94861 24.4598 7.37105 25 10 25C12.629 25 15.0514 24.4598 16.8482 23.5456C18.594 22.6576 20 21.2694 20 19.4767V5.52325ZM18.2857 15.6479C17.8551 15.9974 17.3667 16.3051 16.8482 16.5689C15.0514 17.483 12.629 18.0233 10 18.0233C7.37105 18.0233 4.94861 17.483 3.1517 16.5689C2.6333 16.3051 2.14485 15.9974 1.71429 15.6479V19.4767C1.71429 20.2529 2.35494 21.1902 3.91835 21.9856C5.4305 22.7549 7.57949 23.2559 10 23.2559C12.4205 23.2559 14.5695 22.7549 16.0816 21.9856C17.6451 21.1902 18.2857 20.2529 18.2857 19.4767V15.6479ZM5.42856 12.5C5.42856 13.1423 4.91689 13.6627 4.28571 13.6627C3.65452 13.6627 3.14285 13.1423 3.14285 12.5C3.14285 11.8578 3.65452 11.3372 4.28571 11.3372C4.91689 11.3372 5.42856 11.8578 5.42856 12.5ZM8.85713 14.8256C9.48831 14.8256 9.99999 14.305 9.99999 13.6627C9.99999 13.0206 9.48831 12.5 8.85713 12.5C8.22595 12.5 7.71428 13.0206 7.71428 13.6627C7.71428 14.305 8.22595 14.8256 8.85713 14.8256ZM5.42856 19.4767C5.42856 20.1189 4.91689 20.6395 4.28571 20.6395C3.65452 20.6395 3.14285 20.1189 3.14285 19.4767C3.14285 18.8345 3.65452 18.314 4.28571 18.314C4.91689 18.314 5.42856 18.8345 5.42856 19.4767ZM8.85713 21.8024C9.48831 21.8024 9.99999 21.2817 9.99999 20.6395C9.99999 19.9974 9.48831 19.4767 8.85713 19.4767C8.22595 19.4767 7.71428 19.9974 7.71428 20.6395C7.71428 21.2817 8.22595 21.8024 8.85713 21.8024Z" fill="black"/>
</svg>
